<svg xmlns="http://www.w3.org/2000/svg" xmlns:xlink="http://www.w3.org/1999/xlink" width="420" height="367" viewBox="0 0 420 367">
    <defs>
        <rect id="a" width="117.81" height="18.562" rx="2.421"/>
        <rect id="c" width="117.81" height="18.562" x=".449" rx="2.421"/>
        <path id="e" d="M156.992 28.198a2.421 2.421 0 0 1 2.42 2.42v13.72a2.421 2.421 0 0 1-2.42 2.421H44.024a2.421 2.421 0 0 1-2.421-2.421v-13.72a2.421 2.421 0 0 1 2.42-2.42h112.969zM115.389.318a2.421 2.421 0 0 1 2.421 2.42v13.72a2.421 2.421 0 0 1-2.42 2.421H2.42A2.421 2.421 0 0 1 0 16.46V2.738A2.421 2.421 0 0 1 2.421.318H115.39z"/>
        <ellipse id="g" cx="98.332" cy="98.329" rx="98.332" ry="98.329"/>
        <circle id="i" cx="40.371" cy="39.64" r="39.64"/>
        <circle id="k" cx="39.64" cy="39.64" r="39.64"/>
        <path id="m" d="M6.298 0C2.099 9.187 0 17.394 0 24.62c0 7.228 3.003 18.873 9.01 34.934l5.207-4.264-2.786-27.293L22.863 0H6.298z"/>
        <filter id="o" width="133.3%" height="150%" x="-16.7%" y="-25%" filterUnits="objectBoundingBox">
            <feOffset in="SourceAlpha" result="shadowOffsetOuter1"/>
            <feGaussianBlur in="shadowOffsetOuter1" result="shadowBlurOuter1" stdDeviation="3"/>
            <feColorMatrix in="shadowBlurOuter1" result="shadowMatrixOuter1" values="0 0 0 0 1 0 0 0 0 1 0 0 0 0 1 0 0 0 1 0"/>
            <feMerge>
                <feMergeNode in="shadowMatrixOuter1"/>
                <feMergeNode in="SourceGraphic"/>
            </feMerge>
        </filter>
        <ellipse id="p" cx="39.645" cy="39.948" rx="39.626" ry="39.625"/>
        <path id="r" d="M7.03.917c-.445 2.764 1.033 4.146 4.436 4.146 3.402 0 5.979-1.688 7.73-5.063l7.23 2.185c1.737 9.46 2.167 17.045 1.292 22.758-.876 5.712.52 14.443 4.187 26.192-8.46 1.251-14.44 1.767-17.938 1.548-3.498-.22-7.88-1.387-13.145-3.5 1.976-9.31 2.693-15.884 2.154-19.72-.81-5.754-2.252-5.3-2.88-11.666-.42-4.244.54-9.144 2.88-14.7L7.029.917z"/>
        <path id="t" d="M115.39 25.018a2.421 2.421 0 0 1 2.42 2.42v13.72a2.421 2.421 0 0 1-2.42 2.421H2.42A2.421 2.421 0 0 1 0 41.16v-13.72a2.421 2.421 0 0 1 2.421-2.421H115.39zM204.15 0a2.421 2.421 0 0 1 2.421 2.421v13.72a2.421 2.421 0 0 1-2.42 2.42H91.181a2.421 2.421 0 0 1-2.42-2.42V2.42A2.421 2.421 0 0 1 91.181 0H204.15z"/>
        <path id="v" d="M9.817 2.406c4.658-1.133 8.148-1.7 10.468-1.7 2.32 0 5.63.567 9.933 1.7 3.455 4.792 5.737 10.424 6.848 16.893 1.11 6.47 1.579 16.413 1.406 29.829H.582c.44-10.485 1.358-18.501 2.757-24.048 1.398-5.548 3.558-13.106 6.478-22.674z"/>
        <path id="x" d="M2.096 0h24.659c9.911 3.478 15.562 6.412 16.952 8.8 1.39 2.39 7.64 16.321 18.748 41.795l-5.97 1.997C41.714 34.88 33.854 24.088 32.905 20.22c-6.151-3.26-26.619-3.26-30.81-6.38C-.7 11.76-.7 7.145 2.096 0z"/>
        <path id="z" d="M0 0a13.678 13.678 0 0 1 12.052 11.493l1.079 6.92-9.473.87L0 0z"/>
        <ellipse id="B" cx="39.136" cy="39.141" rx="39.136" ry="39.141"/>
        <path id="D" d="M3.49 1.681c-.684 3.101.866 4.905 4.649 5.413 5.675.76 10.449-5.31 9.506-6.721-.629-.942 2.548-.1 9.531 2.527.759 8.88 1.685 15.028 2.779 18.446 1.99 6.22 6.725 10.747 8.062 12.249 2.171 2.439-5.246 6.626-14.022 8.393-4.008.807-9.779.807-17.31 0v-8.393C6.684 26.833 0 25.185 0 21.296 0 20.204.807 13.69 2.42 1.75l1.07-.068z"/>
        <rect id="F" width="117.81" height="18.562" rx="2.421"/>
        <path id="H" d="M0 1.247L9.683 0l2.546 11.335-8.685 3.345z"/>
        <path id="J" d="M7.379 0l16.118 1.247c3.682 3.332 6.371 7.54 8.069 12.626 1.12 3.355-1.384 10.66-1.742 19.473-.123 3.032.458 7.899 1.742 14.602H4.938L0 1.149 7.379 0z"/>
        <path id="L" d="M14.92 1.26l41.677 20.529h3.7l1.55 7.1 3.384 6.57c0 1.941-.512 2.912-1.536 2.912s-2.631-1.3-4.823-3.9l-3.376-4.709-.001.01c-30.747-8.37-47.78-13.46-51.1-15.27C-.588 11.785-1.436 7.008 2.372 2.6 4.913-.34 9.095-.787 14.92 1.26z"/>
        <ellipse id="N" cx="39.858" cy="40.014" rx="39.626" ry="39.625"/>
        <path id="P" d="M6.303 0H25.07c5.862 12.049 9.511 21.154 10.947 27.316 1.437 6.162 1.437 12.714 0 19.655L3.86 48.585 0 13.495 6.303 0z"/>
        <path id="R" d="M0 6.366L18.53.712l14.896 18.26 7.37 33.777-6.533 1.572-10.741-26.237z"/>
        <path id="T" d="M23.428.63c.345.209 5.54 6.692 5.54 12.9 0 6.209-1.603 7.957 0 15.135.952 4.263 2.73 10.126 5.336 17.59-4.347 2.284-9.912 3.968-16.694 5.05-6.783 1.081-12.65.54-17.603-1.623.68-21.379 1.537-34.212 2.571-38.5.54-2.24 1.6-6.897 4.422-9.327 3.165-.812 3.38-.971 5.816-1.425 2.435-.454 9.023-.758 10.612.2z"/>
    </defs>
    <g fill="none" fill-rule="evenodd">
        <rect width="117.81" height="18.562" x="263.494" y="263.747" fill="#FFF" rx="2.421"/>
        <g transform="translate(301.42 237.115)">
            <mask id="b" fill="#fff">
                <use xlink:href="#a"/>
            </mask>
            <use fill="#FFF" xlink:href="#a"/>
            <path fill="#E9FAFF" d="M32.687-1.288h85.123l23.55 21.226H56.54z" mask="url(#b)"/>
        </g>
        <g transform="translate(246.395 211.112)">
            <mask id="d" fill="#fff">
                <use xlink:href="#c"/>
            </mask>
            <use fill="#FFF" xlink:href="#c"/>
            <path fill="#E9FAFF" d="M44.814-9.342l25.293-.54c-2.385 9.4-4.544 16.202-6.478 20.404-1.935 4.203-4.784 8.283-8.55 12.24h-25.4L44.815-9.341z" mask="url(#d)"/>
        </g>
        <g transform="translate(0 123.632)">
            <mask id="f" fill="#fff">
                <use xlink:href="#e"/>
            </mask>
            <use fill="#FFF" xlink:href="#e"/>
            <path fill="#E9FAFF" d="M102.941-5.889c-4.26 10.272-6.391 19.972-6.391 29.102 0 9.13 1.58 18.994 4.743 29.592l32.368-1.53-.266-57.164h-30.454z" mask="url(#f)"/>
        </g>
        <g transform="translate(109.292 50.41)">
            <mask id="h" fill="#fff">
                <use xlink:href="#g"/>
            </mask>
            <use fill="#FFF" xlink:href="#g"/>
            <path fill="#E9FAFF" d="M178.198 120.048a2.944 2.944 0 1 1 0 5.888h-40.537a2.944 2.944 0 0 1 0-5.888h40.537zm28.371 0a2.944 2.944 0 1 1 0 5.888h-17.325a2.944 2.944 0 0 1 0-5.888h17.325zm-51.583-15.454a2.944 2.944 0 0 1 0 5.888H114.45a2.944 2.944 0 1 1 0-5.888h40.537zm79.954 0a2.944 2.944 0 0 1 0 5.888h-40.538a2.944 2.944 0 1 1 0-5.888h40.538zm-51.583 0a2.944 2.944 0 0 1 0 5.888h-17.325a2.944 2.944 0 1 1 0-5.888h17.325zm23.212-15.453a2.944 2.944 0 0 1 0 5.887h-40.537a2.944 2.944 0 0 1 0-5.887h40.537zm79.954 0a2.944 2.944 0 0 1 0 5.887h-29.436a2.944 2.944 0 0 1 0-5.887h29.436zm-51.583 0a2.944 2.944 0 0 1 0 5.887h-17.325a2.944 2.944 0 0 1 0-5.887h17.325zm-56.742-12.879a2.944 2.944 0 1 1 0 5.888h-40.537a2.944 2.944 0 0 1 0-5.888h40.537zm-51.583 0a2.944 2.944 0 0 1 0 5.888H86.078a2.944 2.944 0 1 1 0-5.888h40.537zm79.954 0a2.944 2.944 0 0 1 0 5.888h-17.325a2.944 2.944 0 0 1 0-5.888h17.325zm-131.536 0a2.944 2.944 0 0 1 0 5.888H57.707a2.944 2.944 0 1 1 0-5.888h17.326zm41.266-15.453a2.944 2.944 0 0 1 0 5.887H75.76a2.944 2.944 0 0 1 0-5.887H116.3zm79.953 0a2.944 2.944 0 1 1 0 5.887h-40.537a2.944 2.944 0 0 1 0-5.887h40.537zm-51.582 0a2.944 2.944 0 0 1 0 5.887h-17.326a2.944 2.944 0 0 1 0-5.887h17.326z" mask="url(#h)"/>
            <g mask="url(#h)">
                <g transform="translate(-4.893 135.625)">
                    <mask id="j" fill="#fff">
                        <use xlink:href="#i"/>
                    </mask>
                    <use fill="#E9FAFF" xlink:href="#i"/>
                    <rect width="48.667" height="7.85" x="-31.398" y="18.054" fill="#E9FAFF" mask="url(#j)" rx="2.421"/>
                </g>
            </g>
            <g mask="url(#h)">
                <g transform="translate(27.29 -29.216)">
                    <mask id="l" fill="#fff">
                        <use xlink:href="#k"/>
                    </mask>
                    <use fill="#E9FAFF" xlink:href="#k"/>
                    <rect width="48.667" height="7.85" x="-32.183" y="13.344" fill="#E9FAFF" mask="url(#l)" rx="2.421"/>
                </g>
            </g>
            <rect width="120.404" height="18.562" x="-81.034" y="53.204" fill="#E9FAFF" mask="url(#h)" rx="2.421"/>
        </g>
        <path fill="#33778E" d="M261.139 150.295a2.944 2.944 0 0 1 0 5.887H220.6a2.944 2.944 0 1 1 0-5.887h40.538zm79.953 0a2.944 2.944 0 0 1 0 5.887h-40.537a2.944 2.944 0 1 1 0-5.887h40.537zm-51.583 0a2.944 2.944 0 0 1 0 5.887h-17.325a2.944 2.944 0 1 1 0-5.887h17.325zm23.213-15.454a2.944 2.944 0 1 1 0 5.887h-40.538a2.944 2.944 0 1 1 0-5.887h40.538zm79.953 0a2.944 2.944 0 1 1 0 5.887H363.24a2.944 2.944 0 1 1 0-5.887h29.436zm-51.583 0a2.944 2.944 0 1 1 0 5.887h-17.325a2.944 2.944 0 1 1 0-5.887h17.325zm-56.741-12.878a2.944 2.944 0 1 1 0 5.887h-40.537a2.944 2.944 0 0 1 0-5.887h40.537zm-51.583 0a2.944 2.944 0 1 1 0 5.887h-40.537a2.944 2.944 0 0 1 0-5.887h40.537zm79.954 0a2.944 2.944 0 1 1 0 5.887h-17.326a2.944 2.944 0 1 1 0-5.887h17.326zm-131.537 0a2.944 2.944 0 1 1 0 5.887H163.86a2.944 2.944 0 0 1 0-5.887h17.325zm41.266-15.454a2.944 2.944 0 0 1 0 5.887h-40.537a2.944 2.944 0 1 1 0-5.887h40.537zm79.954 0a2.944 2.944 0 0 1 0 5.887h-40.537a2.944 2.944 0 1 1 0-5.887h40.537zm-51.583 0a2.944 2.944 0 0 1 0 5.887h-17.325a2.944 2.944 0 1 1 0-5.887h17.325z"/>
        <path fill="#013547" d="M345.342 223.569l-4.543 3.373-2.212 6.349c-1.184 2.356-1.598 3.742-1.243 4.156.355.414 1.549.414 3.58 0l6.966-10.505-2.548-3.373zM379.073 184.475l2.938-.795 3.435 4.969 5.058 5.28c-.856.724-1.58 1.122-2.172 1.195-.592.073-1.554-.325-2.886-1.195l-6.373-4.995v-4.46z"/>
        <path fill="#CD8959" d="M357.89 117.848l4.253-4.72 12.792-23.662c-.433-.534-.764-1.312-.994-2.335-.346-1.533-.346-4.007 1.836-4.94 2.182-.933 4.484 1.251 5.138 2.179.654.928.899 1.992.41 3.896-.326 1.27-1.068 2.137-2.227 2.603l-10.328 26.347-4.033 6.143-6.848-5.51z"/>
        <g transform="translate(331.353 168.496)">
            <mask id="n" fill="#fff">
                <use xlink:href="#m"/>
            </mask>
            <use fill="#2D748C" xlink:href="#m"/>
            <path fill="#013547" d="M3.048-.627l8.383 14.422v12.928l18.42-24.225-2.774-10.625z" mask="url(#n)"/>
        </g>
        <path fill="#2D748C" d="M346.03 169.086c1.411 17.827 3.481 27.455 6.21 28.886 2.728 1.431 11.673-1.582 26.833-9.038v-4.46l-18.357.693 3.428-9.285a21.21 21.21 0 0 0 1.778-3.07c.532-1.117.8-3.045.802-5.784l-20.695 2.058z"/>
        <path fill="#CD8959" d="M332.047 120.157l-4.516-4.792-10.554-19.152v-6.361c-.458-1.304-1.259-2.116-2.403-2.436-1.145-.32-2.75.074-4.82 1.185-1.13.563-1.542 1.493-1.232 2.79.31 1.297 1.628 2.905 3.954 4.822l9.925 24.915 5.13 6.646 4.516-7.617z"/>
        <path fill="#E4C05B" d="M338.797 126.322c4 0 7.593-.025 10.783-.075 7.59 2.394 8.273 5.23 11.996 18.273 2.482 8.697 4.325 16.197 5.527 22.5-9.182 3.373-15.5 5.266-18.954 5.68-3.454.415-7.46-.24-12.02-1.962-.362-14.96-.362-25.459 0-31.496.363-6.037 1.252-10.344 2.668-12.92z"/>
        <path fill="#E4C05B" d="M348.813 126.248l9.076-8.4 7.69 5.858-8.383 11.703zM338.797 126.322l-6.75-6.165-5.335 8.195 9.424 10.111z"/>
        <path fill="#CD8959" d="M339.9 107.31c-3.493 4.837-4.722 8.142-3.688 9.917 1.034 1.776 2.697 2.769 4.987 2.98v6.04h-1.912c.058 2.545 1.493 3.818 4.303 3.818 2.81 0 4.63-1.273 5.461-3.818h-1.14v-6.222c2.94-3.518 4.41-6.11 4.41-7.778 0-2.5 2.027-9.669-4.41-9.669-4.293 0-6.962 1.578-8.01 4.733z"/>
        <path fill="#FED1B1" d="M337.603 117.703c-1.384-1.212-1.455-4.436.747-4.436s4.307 3.224 3.38 4.436c-.927 1.212-2.743 1.212-4.127 0z"/>
        <path fill="#003648" d="M341.196 104.707c.115.345.69.786 1.726 1.324 1.553.806 8.245-.257 6.969 3.976-1.277 4.233-3.11 6.209-4.958 5.8-.942-.207-1.9-2.279-2.514-2.894-.615-.615-2.438-1.387-3.449-1.449-1.82-.11-3.057 1.223-3.441 3.39-.244 1.372.187 3.038 2.24 4.309 2.054 1.27 7.263 1.51 9.146.363 1.255-.764 2.163-2.843 2.723-6.235.015-.38.295-.64.84-.78.546-.142 1.053.522 1.52 1.991 1.941-1.53 2.912-3.937 2.912-7.218 0-4.922-3.936-6.511-7.489-6.194-2.368.212-4.443 1.418-6.225 3.617z"/>
        <path fill="#CD8959" d="M348.96 113.158c1.636-1.064 2.768-1.176 3.396-.335.942 1.262-.808 2.874-2.385 2.419-1.051-.303-1.388-.998-1.01-2.084z"/>
        <path fill="#4CC" fill-rule="nonzero" d="M331.79 100.737a.644.644 0 0 1 .828-.376l3.64 1.364a.643.643 0 1 1-.453 1.205l-3.64-1.364a.643.643 0 0 1-.376-.829zm3.453-4.707l.07.077 3.126 3.986a.643.643 0 0 1-.943.87l-.07-.076L334.3 96.9a.643.643 0 0 1 .943-.871zm4.646-2.1c.323 0 .59.238.637.549l.007.095v4.51a.644.644 0 0 1-1.281.096l-.007-.095v-4.511c0-.356.288-.644.644-.644z"/>
        <g transform="translate(232.485 156.811)">
            <mask id="q" fill="#fff">
                <use xlink:href="#p"/>
            </mask>
            <use fill="#FFF" xlink:href="#p"/>
            <g mask="url(#q)">
                <path fill="#003648" d="M36.611 30.09l-.1 5.858 7.08-3.952v-4.133z"/>
                <path fill="#B07953" d="M35.304 17.727c-.975 7.982-.728 12.157.74 12.526 1.468.37 3.112.37 4.932 0l-.51 4.293c-1.332.715-2.313 1.204-2.944 1.467-2.654 1.879-1.4 5.685 3.454 5.685 6.034 0 8.938-2.2 8.713-6.602a9.892 9.892 0 0 0-1.99-.942c-.349-1.025-.349-2.654 0-4.889l1.99-9.25-4.319-5.232h-6.396l-3.67 2.944zM28.87 43.413l3.88 5.94c-5.3 5.108-8.91 7.662-10.829 7.662-2.878 0-4.476-2.904-5.331-6.188-.57-2.189-.928-8.68-1.076-19.474a17.289 17.289 0 0 1-2.246-3.112c-.956-1.69-2.697-5.038-2.143-6.483.37-.963 1.166-.817 2.387.44l4.087 5.175c-.488-.755-.56-1.327-.214-1.716.518-.584 2.707 3.769 2.368 4.631-.226.575-.557.93-.993 1.065l4.38 17.21 5.73-5.15z"/>
                <g transform="translate(30.492 35.096)">
                    <mask id="s" fill="#fff">
                        <use xlink:href="#r"/>
                    </mask>
                    <use fill="#009FC6" xlink:href="#r"/>
                    <path fill="#000" fill-opacity=".1" d="M27.181 14.58L6.208 52.15l32.29-1.69-.314-37.494z" mask="url(#s)"/>
                </g>
                <path fill="#E6E6E6" d="M22.936 61.568l24.098 2.44c.312.032.569.26.636.567l3.622 16.47a.726.726 0 0 1-.811.875l-23.459-3.305a.726.726 0 0 1-.6-.528l-4.26-15.605a.726.726 0 0 1 .774-.914z"/>
                <path fill="#FFF" d="M35.612 74.754c1.067.152 1.743-.589 1.51-1.655-.232-1.066-1.285-2.053-2.352-2.205-1.067-.153-1.743.588-1.51 1.654.232 1.066 1.285 2.054 2.352 2.206z"/>
                <path fill="#B07953" d="M56.421 47.536l5.63-3.116 5.689 11.269c.899 2.274 1.15 4.087.755 5.44-.395 1.353-1.496 2.445-3.303 3.276l-15.49 7.359c-.667.673-1.237 1.01-1.709 1.01s-2.07-.337-4.794-1.01v-3.875l4.994-.374-.2-1.32 1.708 1.694 13.074-9.035-6.354-11.318z"/>
                <path fill="#003648" d="M34.344 20.99l3.562-2.17 4.917 5.566 2.33-.96c.992.44 1.489 1.107 1.489 2 0 .895-.497 1.772-1.49 2.633l-.161 11.101 6.525-7.255v-7.519c.728-5.149-.28-8.808-3.023-10.975-4.116-3.252-11.564-.219-12.644 1.372-.72 1.06-1.221 3.13-1.505 6.207z"/>
                <path fill="#009FC6" d="M33.468 38.192l-9.739 7.853 7.586 8.516 8.672-8.516zM49.701 38.192a6.67 6.67 0 0 1 10.01 1.687l3.888 6.498-9.51 5.214L49.7 38.192z"/>
            </g>
            <path fill="#33778E" fill-rule="nonzero" d="M14.144 10.866a.644.644 0 0 1 1.175.527l-1.777 3.96 2.843 2.358a.643.643 0 1 1-.823.99l-3.22-2.67a.643.643 0 0 1-.175-.759zm7.06-3.546l3.763 3.029c.225.18.301.49.187.756l-1.656 3.84a.644.644 0 0 1-1.183-.508l1.463-3.392-3.382-2.722a.643.643 0 1 1 .808-1.003z" mask="url(#q)"/>
        </g>
        <g transform="translate(99.69 317.01)">
            <mask id="u" fill="#fff">
                <use xlink:href="#t"/>
            </mask>
            <use fill="#FFF" xlink:href="#t"/>
            <path fill="#E9FAFF" d="M192.701-4.984h56.334L221.134 21.98 203.122 25.2 117.45 51.92l-15.294-26.987L151.454 0z" mask="url(#u)"/>
        </g>
        <rect width="117.81" height="18.562" x="212.658" y="290.378" fill="#FFF" rx="2.421"/>
        <g>
            <path fill="#E9FAFF" d="M112.448 302.209h4.842v66.72h-4.842zM23.094 261.88l38.283.908 11.458 61.86H43.397L29.243 368.93h-3.925l13.716-44.282h-9.45a6.456 6.456 0 0 1-6.4-5.603l-6.643-49.858a6.456 6.456 0 0 1 6.553-7.307z"/>
            <g transform="translate(31.234 253.541)">
                <mask id="w" fill="#fff">
                    <use xlink:href="#v"/>
                </mask>
                <use fill="#E4C05B" xlink:href="#v"/>
                <path fill="#000" fill-opacity=".1" d="M4.23 20.882l8.726 18.751L32.575 45.9l-7.083 7.276-29.195-.307z" mask="url(#w)"/>
            </g>
            <path fill="#013547" d="M105.358 354.86c.465-1.302 3.927-1.86 10.386-1.677 4.331-1.243 7.156-1.584 8.476-1.025 1.319.56 1.549 1.589.69 3.088l-8.098 4-8.559 2.336c-2.394-3.179-3.36-5.42-2.895-6.721zM73.886 359.625c.848-.463 5.213.502 10.268 2.503 3.087 1.221 7.062 1.345 8.033 2.652 1.707 2.298 1.2 3.594-1.52 3.887l-6.513.16-10.893-2.57c-.493-3.924-.285-6.134.625-6.632z"/>
            <g transform="translate(48.76 302.669)">
                <mask id="y" fill="#fff">
                    <use xlink:href="#x"/>
                </mask>
                <use fill="#2D748C" xlink:href="#x"/>
                <path fill="#013547" d="M40.729 33.443c1.928-13.328 3.145-22.054 3.652-26.18.506-4.125-3.26-6.243-11.297-6.353H4.365l1.283 21.687 35.08 10.846z" mask="url(#y)"/>
            </g>
            <path fill="#2D748C" d="M31.83 302.669h31.182c13.636 3.051 21.503 6.245 23.6 9.582 2.098 3.336.392 19.78-5.117 49.33l-7.762-1.617c-1.602-21.264-2.403-34.101-2.403-38.511-1.37-1.333-26.542.688-33.184-4.332-4.428-3.347-6.533-8.164-6.315-14.452z"/>
            <path fill="#FDDFC9" d="M64.9 274.423h8.766l2.519 12.107c8.44 1.888 15.517 2.832 21.231 2.832 1.198 0 2.374 3.916 0 4.107-5.872 1.971-22.025 3.13-26.955 0-3.286-2.086-5.14-8.435-5.562-19.046z"/>
            <g transform="translate(61.452 255.947)">
                <mask id="A" fill="#fff">
                    <use xlink:href="#z"/>
                </mask>
                <use fill="#E4C05B" xlink:href="#z"/>
                <path fill="#000" fill-opacity=".1" d="M2.357 5.753l10.774 13.548-9.683 1.913z" mask="url(#A)"/>
            </g>
            <path fill="#FDDFC9" d="M58.852 234.733c1.375 9.309 1.574 14.282.597 14.92-.977.638-2.687.937-5.132.897l.78 5.277c-1.98.561-3.5.842-4.562.842-1.062 0-2.715-.28-4.96-.842v-10.61c-3.363-.21-4.203-1.628-2.522-4.253 1.68-2.625 3.354-2.625 5.018 0-.953-2.866-.05-4.944 2.709-6.231 2.758-1.288 5.45-1.288 8.072 0z"/>
            <path fill="#ECBC40" d="M46.804 239.37l1.203 2.829 1.237-5.754 9.632-1.18c1.27-3.212 1.517-5.3.738-6.263-1.168-1.443-2.703 1.529-4.42 1.529-1.716 0-6.312-4.744-10.64 0-.204.224-3.436 3.546-4.271 6.628-1.246 4.6.384 9.584 5.58 10.349a9.535 9.535 0 0 0 .536-3.03c-1.992-1.31-2.647-2.603-1.966-3.88.682-1.277 1.472-1.686 2.371-1.228z"/>
            <path fill="#FDDFC9" d="M27.508 273.616h8.714l-1.802 11.82c10.377 6.253 16.108 9.508 17.195 9.766 1.742-2.022 3.752-4.758 6.05-4.758.54 0 8.113 2.846 6.082 4.26-.751.524-3.69-.336-5.463.112-.962 2.66-3.446 4.625-6.67 4.625-10.71-1.142-17.627-4.134-22.526-7.364-3.267-2.154-3.793-8.307-1.58-18.46z"/>
            <path fill="#E4C05B" d="M39.16 256.352l1.89-.405-2.354 19.283-12.529-.866 1.989-7.52a14.527 14.527 0 0 1 11.005-10.492z"/>
            <path fill="#FFF" d="M136.95 301.565v.003h.005v4.842h-.006v62.52h-4.84l-.002-62.52H78.851v62.52H74.01v-62.52H55.45v62.52h-4.84v-67.362h86.29l.05-.003z"/>
            <g>
                <path fill="#E6E6E6" d="M51.182 299.533h18.651l11.913-30.904a.807.807 0 0 1 .753-.516h34.467a.807.807 0 0 1 .75 1.105l-12.886 32.35H51.14l.042-2.035z"/>
                <path fill="#FFF" d="M93.72 287.613c1.504 0 3.167-1.153 3.715-2.574.549-1.421-.224-2.573-1.727-2.573-1.503 0-3.166 1.152-3.714 2.573-.55 1.421.224 2.574 1.727 2.574z"/>
            </g>
        </g>
        <g>
            <g transform="translate(97.335 180.54)">
                <mask id="C" fill="#fff">
                    <use xlink:href="#B"/>
                </mask>
                <use fill="#FFF" xlink:href="#B"/>
                <g mask="url(#C)">
                    <path fill="#FFC7A0" d="M26.678 16.43c-.442 4.562-.608 7.9-.497 10.015.131 2.493 3.23 6.07 4.346 5.788 1.409-.355 2.318-.688 2.728-1l2.046 5.589-3.638.772c-4.848 7.225-4.696 10.837.456 10.837 5.153 0 10.691-3.87 16.615-11.61l-4.545-1.285-3.45-8.085c.175-1.6.606-3.194 1.295-4.781 1.033-2.381.518-11.32-5.723-12.44-4.16-.747-7.371 1.32-9.633 6.2z"/>
                    <path fill="#333" d="M29.605 21.304c2.21 0 4.622-.535 7.236-1.607v4.808c1.52-1.773 2.72-2.461 3.598-2.065 1.318.594 1.249 3.674-.782 4.94-2.03 1.265 2 8.993 7.301 8.667 4.65 1.84 1.353 15.714 11.39 17.014 10.038 1.3 9.789-10.68 7.81-15.174-1.98-4.493-8.04-9.089-12.299-10.507-4.259-1.418-6.901-2.378-6.901-9.264 0-3.553-4.831-8.7-10.117-8.7-5.286 0-10.551 2.686-10.933 6.373-.371 3.577.382 5.515 3.697 5.515z"/>
                    <path fill="#003648" d="M48.734 75.97l16.684-5.621c3.78 6.727 4.917 13.923 3.412 21.589-1.506 7.665-1.184 19.427.966 35.285l-16.835.76-3.144-33.854-2.445 33.855H33.567c-2.441-30.59-1.526-47.676 2.744-51.26 4.27-3.584 8.412-3.835 12.423-.755z"/>
                    <path fill="#FFC7A0" d="M25.411 51.38h9.021c-.584 9.312-1.859 15.341-3.826 18.088-1.966 2.747-9.175 6.856-21.625 12.328-3.462 5.958-6.476 8.548-9.043 7.772-2.566-.777-1.95-3.524 1.85-8.243-1.233.314-2.101.288-2.605-.078-.754-.55.768-1.312 2.974-2.1 1.47-.524 2.631-.738 3.481-.64l17.403-13.159 2.37-13.967z"/>
                    <path fill="#009FC6" d="M30.593 37.661l-.761.44a12.106 12.106 0 0 0-6.046 9.988l-.385 9.368 10.683 1.547-3.49-21.343z"/>
                    <g transform="translate(28.172 35.912)">
                        <mask id="E" fill="#fff">
                            <use xlink:href="#D"/>
                        </mask>
                        <use fill="#009FC6" xlink:href="#D"/>
                        <path fill="#000" fill-opacity=".1" d="M22.843 21.296l-4.482 8.714-20.386 16.8 23.84 6.88 22.194-19.061-9.537-20.54z" mask="url(#E)"/>
                    </g>
                    <path fill="#009FC6" d="M47.152 36.047l4.736.816c4.646.8 8.04 4.83 8.04 9.544V57.21H47.152V36.047z"/>
                </g>
            </g>
            <path fill="#FFC7A0" d="M148.35 237.75h8.27c-.933 6.916-2.382 11.747-4.348 14.494-1.967 2.747-9.534 6.955-22.702 12.626-.805 2.162-1.56 3.656-2.266 4.483-2.105 2.464-4.76 4.128-6.569 2.5-1.808-1.628.217-2.248 1.809-4.985.371-.64.675-1.562.91-2.767-1.234.314-2.102.288-2.605-.078-.755-.55.6-.888 2.805-1.676 1.47-.525 2.687-.88 3.65-1.064l19.99-14.486 1.056-9.048z"/>
        </g>
        <path fill="#33778E" d="M90.241 230.782a.965.965 0 0 1 0 1.93h-9.66a.965.965 0 1 1 0-1.93h9.66zm-12.877 0a.965.965 0 0 1 0 1.93h-9.66a.965.965 0 1 1 0-1.93h9.66zm19.96 0a.965.965 0 0 1 0 1.93h-3.865a.965.965 0 1 1 0-1.93h3.865zm-12.877-3.86a.965.965 0 1 1 0 1.93h-9.66a.965.965 0 0 1 0-1.93h9.66zm19.96 0a.965.965 0 1 1 0 1.93h-9.66a.965.965 0 0 1 0-1.93h9.66zm-12.878 0a.965.965 0 1 1 0 1.93h-3.865a.965.965 0 0 1 0-1.93h3.865zm5.795-3.86a.965.965 0 0 1 0 1.93h-9.66a.965.965 0 0 1 0-1.93h9.66zm19.96 0a.965.965 0 1 1 0 1.93h-9.66a.965.965 0 0 1 0-1.93h9.66zm-12.877 0a.965.965 0 0 1 0 1.93h-3.865a.965.965 0 1 1 0-1.93h3.865zm-14.166-3.217a.965.965 0 0 1 0 1.93h-9.66a.965.965 0 1 1 0-1.93h9.66zm-12.877 0a.965.965 0 0 1 0 1.93h-9.66a.965.965 0 1 1 0-1.93h9.66zm19.96 0a.965.965 0 0 1 0 1.93h-3.865a.965.965 0 1 1 0-1.93h3.865zm-32.837 0a.965.965 0 0 1 0 1.93h-3.865a.965.965 0 0 1 0-1.93h3.865zm10.302-3.86a.965.965 0 0 1 0 1.93h-9.66a.965.965 0 0 1 0-1.93h9.66zm19.96 0a.965.965 0 0 1 0 1.93h-9.66a.965.965 0 1 1 0-1.93h9.66zm-12.878 0a.965.965 0 0 1 0 1.93h-3.865a.965.965 0 0 1 0-1.93h3.865zm-7.082-3.86a.965.965 0 1 1 0 1.93H60.622a.965.965 0 1 1 0-1.93h14.167zm12.877 0a.965.965 0 1 1 0 1.93h-9.66a.965.965 0 1 1 0-1.93h9.66zm19.96 0a.965.965 0 1 1 0 1.93h-9.66a.965.965 0 1 1 0-1.93h9.66zm-12.877 0a.965.965 0 1 1 0 1.93h-3.865a.965.965 0 1 1 0-1.93h3.865z"/>
        <g transform="translate(23.115 96.267)">
            <mask id="G" fill="#fff">
                <use xlink:href="#F"/>
            </mask>
            <use fill="#FFF" xlink:href="#F"/>
            <path fill="#E9FAFF" d="M9.18-.201h71.913l-8.148 21.068-57.161.734z" mask="url(#G)"/>
        </g>
        <g transform="translate(32.295 10.211)">
            <path fill="#FFC7A0" d="M50.495 38.908l14.736-3.328 13.04-19.968-.974-5.966C78.352 4.032 79.1.976 79.544.482c.664-.742 1.568-.55 1.298 1.07-.18 1.078-.18 3.437 0 7.075.339-.293.64-.293.903 0 .394.44 1.208 7.082.918 7.858a4.28 4.28 0 0 1-.918 1.442c-5.578 13.653-9.62 21.421-12.127 23.304-2.506 1.884-7.422 4.305-14.748 7.264l-4.375-9.587z"/>
            <g transform="translate(44.38 37.661)">
                <mask id="I" fill="#fff">
                    <use xlink:href="#H"/>
                </mask>
                <use fill="#E4C05B" xlink:href="#H"/>
                <path fill="#000" fill-opacity=".1" d="M.046 6.054l13.323 5.917-9.447 2.898z" mask="url(#I)"/>
            </g>
            <g transform="translate(20.884 37.661)">
                <mask id="K" fill="#fff">
                    <use xlink:href="#J"/>
                </mask>
                <use fill="#E4C05B" xlink:href="#J"/>
                <path fill="#000" fill-opacity=".1" d="M5.497 18.507l21.065 13.65-22.037.493L3.28 18.507z" mask="url(#K)"/>
            </g>
            <path fill="#FFC7A0" d="M29.876 81.434l-7.28 1.858-6.041-28.862 8.826-1.9zM41.135 19.083c2.656 5.404.383 14.89-.301 15.402-.456.342-1.538.395-3.247.157v3.693c.597.1 1.146.15 1.649.15 2.873 2.325 2.419 4.9-.452 6.176-2.73 1.214-8.771-2.854-10.521-7h2.87v-5.107c-1.31-.643-2.353-2.035-3.13-4.174-.776-2.14-1.105-3.868-.987-5.185 4.1-4.48 7.307-7.058 9.621-7.733 3.471-1.01 3.67-.133 4.498 3.62z"/>
            <path fill="#E4C05B" d="M20.884 38.81a9.057 9.057 0 0 0-5.775 10.15l1.791 9.665 10.74-1.569-6.756-18.246z"/>
            <rect width="42.767" height="27.439" x="16.138" y="63.119" fill="#E6E6E6" rx=".807"/>
            <ellipse cx="37.468" cy="77.847" fill="#FFF" rx="2.575" ry="2.573"/>
            <g transform="translate(0 76.839)">
                <mask id="M" fill="#fff">
                    <use xlink:href="#L"/>
                </mask>
                <use fill="#2D748C" xlink:href="#L"/>
                <path fill="#013547" d="M18.43 19.185L43.573 11.2 66.61 23.404l3.814 16.85H52.736z" mask="url(#M)"/>
            </g>
            <path fill="#2D748C" d="M58.458 79.712l-42.32 20.846 1.746 7.667c30.746-8.37 47.78-13.461 51.1-15.271 4.98-2.715 5.83-7.493 2.02-11.902-2.539-2.94-6.72-3.386-12.546-1.34z"/>
            <path fill="#013547" d="M16.814 100.242h-3.812l-1.55 7.1-3.383 6.57c0 1.94.512 2.911 1.536 2.911 1.023 0 2.631-1.3 4.823-3.9l4.001-5.58-1.615-7.1z"/>
            <path fill="#00445B" d="M41.96 21.592c-.475-.908-.81-1.245-1.003-1.014-2.312 2.762-4.954 4.879-6.265 4.879-1.61 0-2.793-.432-3.548-1.296-1.415 1.961-1.415 3.327 0 4.097 1.414.77.885 1.778-1.59 3.024-1.159-.891-1.872-1.455-2.14-1.69-.174-.155-1.467 1.88-1.862 3.619-.489 2.148.898 3.477-1.884 4.873-2.781 1.396-3.977-3.375-2.39-6.264 1.226-2.229 4.961-3.008 4.846-3.135-2.532-2.776-4.634-8.519 0-13.847 4.633-5.328 11.66-3.832 14.164-1.486 1.67 1.564 2.226 4.31 1.672 8.24z"/>
        </g>
        <g>
            <g transform="translate(127.41 19.547)">
                <mask id="O" fill="#fff">
                    <use xlink:href="#N"/>
                </mask>
                <use fill="#FFF" xlink:href="#N"/>
                <g mask="url(#O)">
                    <g transform="translate(13.203 5.574)">
                        <g transform="translate(12.91 26.566)">
                            <mask id="Q" fill="#fff">
                                <use xlink:href="#P"/>
                            </mask>
                            <use fill="#009FC6" xlink:href="#P"/>
                            <path fill="#000" fill-opacity=".1" d="M1.285 24.005l-2.614 24.89 46.39-2.13-11.968-33.08-4.932 3.328z" mask="url(#Q)"/>
                        </g>
                        <path fill="#FDDFC9" d="M42.56 42.888l9.954-1.435c3.468 9.773 5.201 15.895 5.201 18.365 0 2.47-3.188 7.249-9.563 14.336.3.78.086 1.841-.644 3.187-.73 1.345-3.117 1.658-7.162.94v-6.434l8.685-12.03-6.472-16.93z"/>
                        <rect width="38.732" height="27.439" x="3.606" y="50.571" fill="#E6E6E6" rx=".807"/>
                        <ellipse cx="22.774" cy="64.597" fill="#FFF" rx="2.575" ry="2.573"/>
                        <path fill="#009FC6" d="M37.118 26.632a14.464 14.464 0 0 1 13.697 9.815l1.7 5.006L41.07 43.58l-3.953-16.947z"/>
                        <g transform="translate(14.525)">
                            <path fill="#FDDFC9" d="M1.693 18.556c-.317 2.235.542 3.811 2.576 4.73l3.732.5 1.377 3.197C6.66 31.58 7.024 33.88 10.47 33.88s5.665-2.3 6.658-6.897l-2.866-7.137 1.377-3.612 1.489-9.011L4.73 3.959C3.021 11.456 2.01 16.321 1.693 18.556z"/>
                            <path fill="#C6A03B" d="M13.623 13.164l-6.686-2.697-3.815-2.255C1.333 7.137.317 5.963.074 4.692-.291 2.783.766 1.328 1.656.541c.89-.788 2.269-.654 3.11 0 .842.652 3.757 1.231 8.431 1.566 4.674.334 6.375 2.452 7.52 6.104.764 2.435-.433 5.378-3.59 8.831l-2.534 1.513-.693-1.513 1.18-1.183c1.086-1.77 1.321-2.918.706-3.447-.616-.528-1.336-.278-2.163.75z"/>
                            <path stroke="#003648" stroke-width=".646" d="M13.396 12.695l-5.942.637"/>
                            <ellipse cx="6.002" cy="14.651" stroke="#003648" stroke-width=".646" rx="1.589" ry="2.607"/>
                            <ellipse cx="2.187" cy="12.695" stroke="#003648" stroke-width=".646" rx="1.589" ry="2.607"/>
                        </g>
                        <path fill="#009FC6" d="M19.213 26.566L4.49 24.956.205 35.975l13.061 4.278c2.62-1.873 4.298-3.658 5.035-5.357.738-1.698 1.042-4.474.912-8.329z"/>
                    </g>
                </g>
            </g>
            <path fill="#FDDFC9" d="M145.102 50.117l-8.079-2.531c-5.798-12.613-8.957-19.813-9.477-21.6 0-.914 1.09-5.221.847-8.744-.264-3.83-.968-5.868-2.007-5.347-1.04.522.394 3.607-.645 6.14-.14.34-.412-.42-.925 0-.513.42-1.522 5.45-1.562 5.751-.133.984.643 1.684.76 2.836 1.026 10.172 6.693 27.01 7.143 27.625.699.955 4.215 2.516 10.548 4.683l3.397-8.813z"/>
        </g>
        <g transform="translate(197.9 179.816)">
            <path fill="#013547" d="M6.872 148.78l4.426 2.981c.238 2.012.987 3.564 2.246 4.656 1.889 1.639 5.877 2.934 6.517 3.78.426.564-.5 1.208-2.777 1.931h-7.81l-5.529-8.866 2.927-4.482zM50.087 130.696l6.973-1.679c1.69.388 3.235.388 4.635 0 2.1-.581 2.857-1.917 4.092-2.262 1.236-.344 3.443.985 0 4.614-2.295 2.42-6.599 4.414-12.91 5.983l-2.79-6.656z"/>
            <g transform="translate(15.825 76.374)">
                <mask id="S" fill="#fff">
                    <use xlink:href="#R"/>
                </mask>
                <use fill="#2D748C" xlink:href="#R"/>
                <path fill="#013547" d="M1.342-5.143l19.685 2.788-4.39 7.065 5.013 24.636L3.36 15.98z" mask="url(#S)"/>
            </g>
            <path fill="#FFC8A9" d="M30.174 43.698l-.688-16.662c-.324-.499-.487-.923-.487-1.272 0-.524 1.575-3.824 2.147-3.824.381 0 .455.338.22 1.013.177-.366.303-.703.378-1.013.227-.942.227-2.11 0-3.502-.183-.553-.1-.939.248-1.158.349-.219.732-.128 1.15.272.855 1.615 1.243 2.975 1.162 4.08-.08 1.104-.725 3.065-1.934 5.883l4.482 21.465c-.664 2.347-1.9 3.52-3.71 3.52-1.811 0-4.434-1.588-7.87-4.764l1.777-7.098 3.125 3.06z"/>
            <path fill="#2D748C" d="M4.097 76.954c-2.255 6.89-1.91 12.087 1.031 15.592 2.943 3.506 5.053 11.54 6.33 24.106l-5.394 32.465 6.102 4.145 12.908-36.61V79.818L4.097 76.954z"/>
            <g transform="translate(.052 30.895)">
                <mask id="U" fill="#fff">
                    <use xlink:href="#T"/>
                </mask>
                <use fill="#E4C05B" xlink:href="#T"/>
                <path fill="#000" fill-opacity=".1" d="M1.406 9.682l3.673-.81L6.82 25.116l28.446 20.943.904 8.146H6.821l-9.008-20.277z" mask="url(#U)"/>
            </g>
            <path fill="#E6E6E6" d="M7.661 61.794l23.748-3.658a.807.807 0 0 1 .918.657l2.85 16.1a.807.807 0 0 1-.665.938L10.27 79.817a.807.807 0 0 1-.93-.682L6.985 62.706a.807.807 0 0 1 .676-.912z"/>
            <ellipse cx="20.848" cy="69.166" fill="#FFF" rx="1.61" ry="1.608"/>
            <path fill="#FFC8A9" d="M2.678 47.152c0-4.635.69-14.584 5.48-14.584 3.192 0 4.075 7.865 2.646 23.596L25.45 75.488l2.309 1.377 1.26-.185c-.398 2.054-1.587 3.08-3.569 3.08s-3.226-.641-3.734-1.924C10.803 67.806 4.834 61.7 3.809 59.521c-1.536-3.268-1.131-7.734-1.131-12.369zM23.631 9.572c3.823 5.864 5.097 10.214 3.823 13.05-1.274 2.836-3.735 3.797-7.382 2.884l1.323 5.273c.464.143.98.29 1.55.44.498 1.41-.265 4.383-2.149 4.953-4.118 1.247-7.929-4.136-7.929-4.847a21.709 21.709 0 0 1 2.162-.546l-.28-8.157c-4.225-6.003-5.144-10.353-2.759-13.05 2.386-2.696 6.266-2.696 11.641 0z"/>
            <path fill="#CD8232" d="M17.207 17.164l1.965-5.073 3.347 1.6 3.739-1.6c-1.497-3.186-3.052-5.21-4.666-6.072-2.42-1.294-8.449-2.634-12.058 2.324-3.61 4.957.176 12.779 3.8 14.512 2.415 1.156 3.245-.074 2.49-3.69-2.161-.915-2.992-2.05-2.49-3.403.5-1.354 1.791-.886 3.873 1.402z"/>
            <path fill="#CD8232" d="M12.636 6.386c.826-4.142.416-6.214-1.23-6.214-2.47 0-6.845-1.534-7.674 4.553-.553 4.058 2.147 5.544 8.1 4.457l.804-2.796z"/>
        </g>
        <g fill="#4CC" fill-rule="nonzero">
            <path d="M125.187 4.591a.644.644 0 0 1 1.124.629l-2.13 3.802a.644.644 0 0 1-1.124-.628zm-8.512-1.79l.029.091 1.332 5.6a.644.644 0 0 1-1.225.389l-.029-.091-1.331-5.6a.644.644 0 0 1 1.224-.389zm5.692-2.257a.644.644 0 0 1 .495.679l-.015.094-1.755 7.471a.644.644 0 0 1-1.269-.2l.015-.094 1.755-7.47a.644.644 0 0 1 .774-.48z"/>
        </g>
    </g>
</svg>
