<?xml version="1.0" encoding="UTF-8"?>
<svg width="480px" height="310px" viewBox="0 0 480 310" version="1.1" xmlns="http://www.w3.org/2000/svg" xmlns:xlink="http://www.w3.org/1999/xlink">
    <defs>
        <filter x="-24.0%" y="-22.7%" width="148.0%" height="145.4%" filterUnits="objectBoundingBox" id="filter-1">
            <feOffset dx="0" dy="5" in="SourceAlpha" result="shadowOffsetOuter1"></feOffset>
            <feGaussianBlur stdDeviation="5" in="shadowOffsetOuter1" result="shadowBlurOuter1"></feGaussianBlur>
            <feColorMatrix values="0 0 0 0 0.0274509804   0 0 0 0 0.352941176   0 0 0 0 1  0 0 0 0.3 0" type="matrix" in="shadowBlurOuter1" result="shadowMatrixOuter1"></feColorMatrix>
            <feMerge>
                <feMergeNode in="shadowMatrixOuter1"></feMergeNode>
                <feMergeNode in="SourceGraphic"></feMergeNode>
            </feMerge>
        </filter>
        <ellipse id="path-2" cx="58.1960445" cy="58.1395349" rx="58.1960445" ry="58.1395349"></ellipse>
        <path d="M9.52380952,37.3333333 C12.8271916,45.8466771 17.1715071,50.1033489 22.5567561,50.1033489 C27.942005,50.1033489 30.4427326,47.4634176 30.058939,42.183555 C28.6904744,43.8100728 26.343456,44.6233317 23.0178838,44.6233317 C17.9696081,44.6233317 13.4715834,42.1933323 9.52380952,37.3333333 Z" id="path-4"></path>
        <filter x="-21.5%" y="-25.0%" width="143.1%" height="150.0%" filterUnits="objectBoundingBox" id="filter-5">
            <feOffset dx="0" dy="5" in="SourceAlpha" result="shadowOffsetOuter1"></feOffset>
            <feGaussianBlur stdDeviation="5" in="shadowOffsetOuter1" result="shadowBlurOuter1"></feGaussianBlur>
            <feColorMatrix values="0 0 0 0 0.0274509804   0 0 0 0 0.352941176   0 0 0 0 1  0 0 0 0.3 0" type="matrix" in="shadowBlurOuter1" result="shadowMatrixOuter1"></feColorMatrix>
            <feMerge>
                <feMergeNode in="shadowMatrixOuter1"></feMergeNode>
                <feMergeNode in="SourceGraphic"></feMergeNode>
            </feMerge>
        </filter>
        <ellipse id="path-6" cx="56.6138485" cy="56.5018015" rx="56.6138485" ry="56.5018015"></ellipse>
        <path d="M8.35600456,37.2205724 C11.8446661,44.9946842 15.9629874,48.8817401 20.7109682,48.8817401 C25.4589491,48.8817401 27.663751,46.5526856 27.3253739,41.8945765 C26.1188477,43.3295565 24.0495658,44.0470465 21.117528,44.0470465 C16.6666444,44.0470465 12.4128032,41.7715552 8.35600456,37.2205724 Z" id="path-8"></path>
        <path d="M36.332119,0 C32.1637245,3.61977935 34.0591447,6.13433124 42.0183797,7.54365568 C49.9776147,8.95298013 56.5223569,6.84865593 61.6526064,1.2306831 C66.2881883,2.17342092 69.5997822,2.99453445 71.5873881,3.69402371 C77.1529496,5.65268693 82.8215998,8.40629856 86.0859186,11.9548586 C91.0988962,17.4043424 94.0205629,25.0928536 94.8509189,35.0203922 L77.1198141,43.1024057 C78.7611616,48.6487436 79.5818353,55.0287989 79.5818353,62.2425719 C79.5818353,69.4563448 78.7611616,79.865739 77.1198141,93.4707543 L8.64796092,84.0201453 L15.4605041,49.7318367 L16.8052833,42.9634089 L0.594165626,33.5697529 C5.99370929,17.5683992 10.556436,8.33715935 14.2823458,5.87603333 C18.0082556,3.41490731 25.35818,1.45622953 36.332119,0 Z" id="path-9"></path>
    </defs>
    <g id="Page-1" stroke="none" stroke-width="1" fill="none" fill-rule="evenodd">
        <g id="Homepage_1280" transform="translate(-98.000000, -2652.000000)">
            <g id="ArcExportImage_Desktop" transform="translate(93.000000, 2623.000000)">
                <rect id="Rectangle-Copy-64" x="0" y="0" width="480" height="360"></rect>
                <g id="Img_BackgroundMap" transform="translate(5.000000, 29.000000)" fill="#E6ECF9">
                    <path d="M134.343103,203.032265 L134.46545,203.079992 L159.520031,214.909826 C159.814188,215.048716 160.013668,215.327357 160.054366,215.644588 L160.062059,215.765161 L160.062059,219.224789 C160.062059,219.618197 160.304772,219.965995 160.664034,220.105987 L160.775183,220.141588 L181.345256,225.363998 C181.512314,225.406411 181.663784,225.493433 181.784041,225.614668 L181.868137,225.711847 L183.066551,227.303501 C183.276201,227.581943 183.313821,227.949703 183.173224,228.261265 L183.112134,228.375182 L176.036534,239.651861 C175.965642,239.764845 175.919716,239.891102 175.901184,240.022197 L175.891873,240.154592 L175.891873,249.669088 C175.891873,250.010191 175.708686,250.321248 175.418631,250.488455 L175.305,250.544193 L167.713454,253.658622 C167.590662,253.708998 167.480315,253.78445 167.389204,253.879622 L167.304756,253.981168 L156.236035,269.359719 L156.218603,269.384782 L156.201989,269.410394 L142.606039,291.129796 L142.558297,291.215683 L142.519723,291.30606 L139.118175,300.583158 C139.059125,300.744207 139.04525,300.917482 139.076822,301.084484 L139.109026,301.208269 L140.928455,306.658964 C140.986933,306.834156 140.992539,307.021618 140.946189,307.198375 L140.901699,307.328576 L140.147889,309.101412 C140.123965,309.157676 140.094642,309.211489 140.060332,309.262095 C139.789727,309.661222 139.26775,309.788098 138.848962,309.574681 L138.74662,309.514198 L130.415832,303.865995 C130.177968,303.704725 130.028201,303.44559 130.004164,303.163514 L130.001669,303.041438 L130.774297,285.511492 L130.779293,285.44754 L130.788611,285.384074 L137.826657,246.642193 C137.878724,246.35558 137.795597,246.063482 137.606055,245.848183 L137.518391,245.760854 L128.005911,237.448794 C127.924564,237.377713 127.856198,237.293403 127.80356,237.19967 L127.756267,237.102937 L122.239948,223.974649 C122.128137,223.708551 122.144692,223.408303 122.279968,223.158253 L122.345183,223.054409 L126.560564,217.218034 C126.698962,217.026416 126.759776,216.791208 126.733796,216.559051 L126.71353,216.443444 L125.572727,211.690572 C125.505364,211.40992 125.570187,211.116299 125.744057,210.891382 L125.825182,210.799434 L133.394286,203.264953 C133.645343,203.015044 134.011694,202.928834 134.343103,203.032265 Z M461.494902,266.21883 L461.605098,266.226928 L462.382096,266.32929 C462.813459,266.386118 463.144985,266.727927 463.197243,267.150097 L463.204437,267.267072 L463.204437,268.687595 C463.204437,269.154675 463.543753,269.545396 463.993544,269.620483 L464.108161,269.63254 L464.978481,269.671371 C465.126447,269.677973 465.270262,269.719198 465.398596,269.791089 L465.491768,269.850695 L468.160785,271.787032 C468.215168,271.826486 468.265192,271.871621 468.310011,271.921675 C468.631684,272.280919 468.628314,272.818084 468.319791,273.172688 L468.236315,273.257327 L465.351131,275.840771 L465.267717,275.925491 L465.19559,276.020005 L460.815836,282.575943 L460.760405,282.650677 L460.6979,282.719603 L455.756489,287.657185 C455.522094,287.891398 455.184852,287.983824 454.868198,287.908125 L454.750659,287.871805 L452.514954,287.018609 C452.404532,286.97647 452.302987,286.914009 452.215575,286.834463 C451.858931,286.50991 451.807483,285.975203 452.078221,285.590975 L452.152627,285.498262 L458.083254,278.981234 L458.128276,278.927936 L458.169248,278.871466 L462.188357,272.878803 C462.333929,272.661749 462.382165,272.395955 462.325681,272.14461 L462.288677,272.020435 L460.595665,267.49622 C460.541351,267.351077 460.523531,267.194811 460.543772,267.041166 C460.602256,266.597232 460.959717,266.265983 461.38681,266.223368 L461.494902,266.21883 Z M426.419244,276.757512 C426.941641,276.757512 427.365128,277.180999 427.365128,277.703397 L427.365128,278.805556 C427.365128,279.023998 427.289522,279.235707 427.151149,279.404733 L425.911631,280.918827 C425.622226,281.27234 425.121507,281.368476 424.72176,281.147277 L423.764553,280.617609 C423.526164,280.485697 423.356233,280.257399 423.29828,279.991182 L422.844045,277.904597 C422.732925,277.394154 423.05664,276.890278 423.567083,276.779159 C423.633183,276.764769 423.700635,276.757512 423.768283,276.757512 L426.419244,276.757512 Z M411.083126,232.722319 C411.604842,232.695634 412.049408,233.096936 412.076093,233.618652 C412.087358,233.838914 412.021301,234.056188 411.889343,234.232906 L411.005661,235.416329 C410.693102,235.834906 410.779047,236.427608 411.197624,236.740167 C411.22621,236.761512 411.255981,236.781224 411.286794,236.799206 L415.186099,239.074846 C415.637282,239.338157 416.216495,239.185857 416.479806,238.734673 C416.501665,238.697217 416.520923,238.658303 416.537442,238.618204 L418.289249,234.365927 C418.488237,233.882912 419.041109,233.652662 419.524124,233.851649 C419.712988,233.929456 419.871591,234.066309 419.976214,234.241744 L422.996503,239.306232 C423.083872,239.452735 423.129999,239.620137 423.129999,239.790714 L423.129999,242.706453 C423.129999,242.914727 423.198739,243.117177 423.325555,243.282392 L431.849797,254.387718 C432.03004,254.622537 432.089957,254.928196 432.011709,255.213687 L427.44198,271.886437 C427.329346,272.297385 426.955844,272.582291 426.529739,272.582291 L420.477243,272.582291 C420.199305,272.582291 419.935433,272.46005 419.755712,272.248036 L413.285234,264.614911 C413.160798,264.468115 412.994547,264.362767 412.808672,264.312928 L403.820486,261.902914 C403.631714,261.852299 403.431897,261.8614 403.248508,261.928967 L391.73349,266.171517 C391.646546,266.20355 391.555367,266.222635 391.462875,266.228159 L385.634363,266.576275 C385.128578,266.606483 384.688819,266.232773 384.637037,265.728741 L384.003378,259.56096 C383.990418,259.434809 383.952222,259.312552 383.891063,259.201459 L381.563486,254.973495 C381.486559,254.833759 381.446219,254.676837 381.446219,254.517325 L381.446219,248.737006 C381.446219,248.370584 381.657848,248.037126 381.989404,247.881126 L388.80156,244.675943 C388.882477,244.637871 388.957585,244.588517 389.024643,244.529354 L397.381034,237.156804 C397.609522,236.955218 397.921129,236.876045 398.21813,236.944117 L401.520035,237.700899 C401.840025,237.774239 402.175159,237.676419 402.405452,237.442459 L406.579692,233.201762 C406.74576,233.033051 406.969054,232.932744 407.205478,232.920651 L411.083126,232.722319 Z M367.41285,48.684733 L367.514885,48.7560518 L379.754881,58.5639928 C380.049142,58.799785 380.172242,59.1845144 380.07845,59.5418673 L380.03909,59.6597292 L377.89677,64.905903 C377.718603,65.3422021 377.88972,65.8363395 378.28378,66.073474 L378.386867,66.1272212 L387.492623,70.1922554 C387.809631,70.3337759 388.174982,70.2891727 388.446998,70.0843358 L388.544352,70.0000615 L390.954692,67.6090643 C391.184155,67.3814432 391.511542,67.2886514 391.822097,67.3563479 L391.937542,67.389307 L399.562322,70.098677 C399.598427,70.1115063 399.633718,70.1265176 399.668002,70.1436278 C400.099466,70.3589617 400.294386,70.8595257 400.13834,71.3028991 L400.091951,71.4123529 L398.376338,74.8499206 C398.31087,74.9810992 398.27679,75.1257005 398.27679,75.2723086 C398.27679,75.7573922 398.64194,76.1571906 399.112365,76.2118297 L399.222675,76.2181934 L411.321932,76.2181934 C411.681525,76.2181934 412.006215,76.0148415 412.165676,75.6999247 L412.212532,75.5909463 L413.726707,71.3587899 C413.728104,71.3548868 413.729526,71.3509929 413.730973,71.3471085 C413.900373,70.8925649 414.38215,70.6454535 414.842039,70.7585348 L414.947626,70.7910939 L429.45147,76.1963905 L429.510563,76.2162216 L429.570834,76.2321175 L439.421508,78.4858213 C439.812428,78.5752588 440.099964,78.8995517 440.149012,79.2891973 L440.156437,79.407882 L440.156437,82.495886 C440.156437,82.8855918 440.394693,83.2310059 440.749242,83.3734472 L440.858973,83.4099317 L450.998153,86.1093096 C451.117819,86.1411687 451.242177,86.1491182 451.364183,86.1331594 L451.485145,86.1092311 L461.859169,83.3437466 C462.103994,83.2784818 462.362905,83.3145388 462.578896,83.4403656 L462.683051,83.5107063 L479.135295,96.2900161 C479.499438,96.5728649 479.602272,97.071611 479.395683,97.4708644 L479.331633,97.577048 L477.171084,100.684006 L477.137848,100.72891 C476.839651,101.107866 476.309998,101.197449 475.907379,100.954904 L475.809578,100.887323 L471.434501,97.444619 L471.410098,97.4260487 C471.021674,97.1402924 470.487305,97.1951375 470.163908,97.5362307 L470.087661,97.627436 L467.416872,101.257794 C467.321263,101.387755 467.260886,101.539442 467.24056,101.698176 L467.2329,101.818319 L467.2329,106.528016 C467.2329,106.780656 467.131953,107.020919 466.955624,107.197102 L466.861295,107.279615 L457.41675,114.495994 C457.081556,114.752108 456.622464,114.752798 456.288531,114.511192 L456.192355,114.431454 L454.025225,112.380856 C453.99136,112.348813 453.955173,112.319316 453.916958,112.292609 C453.521706,112.016375 452.988828,112.084187 452.673814,112.433037 L452.599805,112.526068 L447.744742,119.472967 C447.655916,119.600065 447.600041,119.746539 447.581244,119.899284 L447.574163,120.014814 L447.574163,125.172094 C447.574163,125.350094 447.523964,125.523536 447.430626,125.673034 L447.352644,125.780365 L439.625014,134.982895 C439.445292,135.196919 439.180123,135.32051 438.900648,135.32051 C438.415565,135.32051 438.015766,134.95536 437.961127,134.484935 L437.954764,134.374625 L437.954764,125.908626 C437.954764,125.775436 437.982884,125.644264 438.036713,125.52351 L438.099021,125.406539 L447.314268,110.693558 C447.453976,110.470501 447.493424,110.201213 447.427301,109.950402 L447.385417,109.826836 L446.608306,107.966772 C446.595353,107.93577 446.580758,107.905479 446.564582,107.87603 C446.33243,107.453377 445.824581,107.278314 445.387694,107.451692 L445.280151,107.502354 L432.028618,114.781083 C431.83201,114.889074 431.604821,114.922999 431.387635,114.879531 L431.258849,114.844137 L422.776455,111.854815 C422.429097,111.7324 422.046343,111.823515 421.791635,112.079618 L421.7117,112.171029 L410.748115,126.456114 C410.481392,126.803643 410.490708,127.283502 410.756708,127.619038 L410.835604,127.706762 L416.801546,133.567669 C417.0208,133.783062 417.119814,134.089248 417.073343,134.387768 L417.044445,134.514949 L412.282633,150.341445 C412.27559,150.364855 412.267641,150.387984 412.258806,150.410778 C412.083489,150.863072 411.598528,151.103875 411.140154,150.984801 L411.035,150.950867 L407.91481,149.741426 C407.647132,149.63767 407.349137,149.661771 407.103609,149.802129 L407.001837,149.869367 L399.097502,155.856424 C398.82546,156.062479 398.68812,156.396533 398.730143,156.728842 L398.754396,156.853123 L400.419267,163.124685 C400.500879,163.432115 400.422069,163.757088 400.215336,163.992058 L400.131878,164.075742 L398.538542,165.485683 C398.497062,165.522389 398.452437,165.555381 398.405183,165.584278 C397.993794,165.835851 397.466054,165.735612 397.172939,165.368169 L397.104752,165.270791 L392.154332,157.175523 C392.130032,157.135786 392.102831,157.097899 392.072949,157.06217 C391.76359,156.69227 391.231501,156.618514 390.836291,156.872952 L390.740548,156.943417 L386.393627,160.578892 C386.100686,160.823888 385.986842,161.217474 386.094237,161.575691 L386.138287,161.693534 L391.152455,172.804864 C391.274048,173.074314 391.261815,173.382609 391.124793,173.639278 L391.058456,173.745855 L382.998887,184.963094 C382.860266,185.156026 382.655091,185.288524 382.425352,185.336819 L382.30863,185.35384 L372.193399,186.189811 C372.027602,186.203514 371.869115,186.26062 371.733449,186.354401 L371.63622,186.431508 L368.767681,189.030417 C368.503698,189.269587 368.399149,189.633552 368.487735,189.971156 L368.530073,190.096226 L372.643528,199.935689 C372.793028,200.293295 372.708134,200.701159 372.439826,200.969288 L372.343667,201.053228 L369.858584,202.944456 C369.529869,203.194619 369.081667,203.20016 368.749118,202.970748 L368.653058,202.894885 L360.673205,195.714427 C360.594854,195.643924 360.505458,195.587181 360.408825,195.546329 L360.309919,195.510853 L354.712088,193.847573 C354.347276,193.739177 354.086687,193.424498 354.042323,193.053655 L354.035612,192.940867 L354.035612,190.026197 C354.035612,189.849557 353.986176,189.67737 353.894157,189.528608 L353.817266,189.421725 L350.501821,185.431277 C350.218102,185.089795 349.739952,184.995337 349.35206,185.189245 L349.248724,185.24931 L335.61712,194.359006 C335.443675,194.474916 335.314414,194.644182 335.247661,194.839425 L335.215257,194.959468 L333.825349,201.890615 C333.773085,202.151239 333.614074,202.376022 333.389932,202.512503 L333.290005,202.565436 L330.502263,203.835203 C330.493954,203.838987 330.485592,203.842651 330.477177,203.846193 C330.032738,204.033286 329.525974,203.855106 329.291224,203.447893 L329.238397,203.341397 L326.322831,196.415483 C326.279363,196.312225 326.2547,196.202346 326.249691,196.091009 L326.251263,195.979377 L326.950437,186.436122 C326.954339,186.382862 326.953724,186.329367 326.948598,186.276211 C326.902034,185.793367 326.500193,185.430467 326.026696,185.421237 L325.916284,185.425491 L321.728537,185.829344 C321.491449,185.852208 321.256025,185.78472 321.068133,185.642981 L320.97836,185.565999 L317.955975,182.627362 C317.876593,182.550179 317.784488,182.487736 317.683997,182.44262 L317.580871,182.403377 L299.448215,176.689661 C299.366864,176.664026 299.289543,176.627567 299.218279,176.581409 L299.116176,176.505039 L296.181957,173.984741 C295.996348,173.825316 295.757537,173.745047 295.516257,173.757673 L295.395647,173.771792 L293.003616,174.208808 C292.914219,174.22514 292.827642,174.254271 292.746555,174.2953 C292.316288,174.513015 292.124136,175.014648 292.282628,175.457152 L292.329621,175.566348 L295.572617,181.975468 C295.717811,182.262415 295.997193,182.453401 296.311552,182.488465 L296.430882,182.494188 L302.243742,182.406455 C302.41838,182.403819 302.589447,182.449578 302.738466,182.537451 L302.845808,182.611153 L306.598779,185.587844 C306.615262,185.600918 306.631303,185.614537 306.646878,185.62868 C307.003863,185.952858 307.055873,186.48751 306.78554,186.872023 L306.711231,186.964814 L299.467145,194.942021 C299.361072,195.058829 299.227911,195.146773 299.08019,195.198627 L298.966866,195.230637 L286.921346,197.836009 C286.541178,197.918237 286.153864,197.75916 285.939417,197.443771 L285.880448,197.344549 L274.926952,176.073968 C274.761605,175.75288 274.43011,175.557144 274.075664,175.561153 L273.956862,175.569989 L272.844993,175.723245 C272.747494,175.736684 272.65269,175.765257 272.564003,175.807934 C272.129481,176.017027 271.927367,176.514729 272.077006,176.960306 L272.121813,177.070417 L283.963008,201.677958 C284.067275,201.894638 284.249374,202.062064 284.470587,202.148636 L284.584275,202.185038 L293.308992,204.382997 C293.413897,204.409424 293.51349,204.453653 293.603439,204.513757 C294.004381,204.781666 294.134771,205.302777 293.92418,205.722993 L293.864388,205.825741 L288.781524,213.432534 C288.747283,213.483778 288.708156,213.531492 288.664733,213.575023 L288.596451,213.637101 L278.510844,221.944918 C278.20225,222.199116 278.08994,222.616183 278.218865,222.985934 L278.264825,223.09523 L280.459884,227.521696 C280.49222,227.586904 280.516867,227.655516 280.533416,227.726147 L280.552114,227.833435 L281.636977,237.229735 C281.670757,237.522317 281.56626,237.81132 281.359074,238.014114 L281.264096,238.095506 L273.54776,243.87052 C273.3181,244.042401 273.180645,244.307612 273.16938,244.589985 L273.172377,244.711831 L273.434878,247.655082 C273.448676,247.809796 273.424118,247.964908 273.364171,248.106933 L273.312622,248.210786 L265.70263,261.438802 C265.581329,261.649654 265.384372,261.804272 265.154237,261.873216 L265.036602,261.900412 L255.27385,263.509888 C254.867631,263.576856 254.469586,263.373506 254.282347,263.016085 L254.236661,262.914873 L245.201094,239.320406 C245.155178,239.200506 245.134312,239.072946 245.139246,238.945529 L245.152808,238.818449 L246.79079,229.495813 C246.822114,229.317531 246.801481,229.13499 246.732795,228.969513 L246.672331,228.848937 L241.566482,220.256383 C241.488222,220.124683 241.443418,219.97646 241.435151,219.82461 L241.43585,219.710244 L241.704168,215.687283 C241.718127,215.478 241.662096,215.271274 241.546839,215.0988 L241.470665,214.99968 L235.515411,208.228061 C235.349871,208.039828 235.11768,207.926301 234.870906,207.909113 L234.746545,207.908647 L216.331124,209.051365 C216.065063,209.067875 215.806295,208.971369 215.616685,208.788888 L215.539839,208.705496 L205.792925,196.767015 C205.645885,196.586913 205.571185,196.36013 205.580517,196.130449 L205.592241,196.015569 L207.633469,183.582838 C207.657715,183.435164 207.716554,183.295895 207.804525,183.176129 L207.875881,183.090135 L213.824157,176.727213 C214.003606,176.535255 214.093774,176.278955 214.077123,176.020516 L214.059815,175.891405 L213.211511,171.751147 C213.180176,171.598212 213.187295,171.440517 213.231401,171.292003 L213.271393,171.182557 L215.349317,166.427071 C215.49043,166.104124 215.797509,165.889485 216.142689,165.862739 L216.258984,165.860891 L224.415805,166.23134 L224.463191,166.232304 L224.510565,166.230892 L241.537738,165.296206 L241.589583,165.294784 C242.074667,165.294784 242.474465,165.659934 242.529104,166.130359 L242.535468,166.240669 L242.535468,168.824953 C242.535468,169.070107 242.630548,169.303977 242.797906,169.478874 L242.887503,169.561187 L248.151129,173.80686 C248.309536,173.934632 248.504011,174.00722 248.705239,174.015679 L248.826552,174.012987 L254.513869,173.520684 C254.885188,173.488542 255.198834,173.242376 255.322371,172.898546 L255.356327,172.780478 L255.630116,171.529014 C255.721763,171.110104 256.081495,170.810281 256.500371,170.786752 L256.61592,170.787303 L273.382107,171.88461 C273.695972,171.905151 273.996697,171.768445 274.187848,171.524907 L274.254205,171.428671 L276.029007,168.481172 C276.118467,168.332601 276.164929,168.163053 276.164567,167.991254 L276.155456,167.862275 L275.826619,165.510242 C275.766737,165.081931 275.425927,164.754102 275.00614,164.702438 L274.889846,164.695327 L266.985874,164.695327 C266.71018,164.695327 266.450323,164.57521 266.271963,164.369967 L266.200705,164.276895 L264.218683,161.326444 C263.975504,160.964445 264.013473,160.488514 264.297112,160.170228 L264.380533,160.087535 L267.535243,157.323634 C267.628751,157.241709 267.737176,157.179293 267.854125,157.139537 L267.973679,157.10745 L276.146223,155.478615 C276.301994,155.447569 276.46242,155.456365 276.612851,155.503304 L276.72357,155.545632 L281.557992,157.750237 C281.931208,157.920432 282.366471,157.829439 282.64069,157.536439 L282.717902,157.442538 L283.770163,155.98202 C283.781665,155.966056 283.792666,155.949736 283.80315,155.933085 C284.060084,155.525023 283.966759,154.996016 283.603183,154.698119 L283.506705,154.628664 L277.284625,150.710968 C276.930672,150.488104 276.768814,150.062728 276.874574,149.666952 L276.910109,149.559921 L277.408917,148.3101 C277.454445,148.196023 277.47732,148.074171 277.476263,147.951349 C277.47209,147.466283 277.103514,147.069641 276.632637,147.019051 L276.522276,147.013637 L268.56428,147.082102 C268.224118,147.085029 267.915316,147.269896 267.750264,147.560174 L267.695327,147.673819 L264.293631,156.098896 C264.155809,156.440244 263.834576,156.66706 263.474207,156.688927 L263.352832,156.688501 L261.004882,156.529999 C260.905936,156.523319 260.806555,156.532242 260.710381,156.556439 C260.239959,156.674798 259.941339,157.12646 260.003133,157.595999 L260.023877,157.704528 L260.730488,160.512993 C260.792857,160.760879 260.751895,161.021532 260.620501,161.236702 L260.547328,161.340226 L259.515816,162.609875 C259.489248,162.642577 259.460524,162.673467 259.429837,162.702339 C259.078632,163.03277 258.541547,163.042643 258.179446,162.742955 L258.092775,162.66159 L254.743934,159.102214 C254.684447,159.038987 254.63409,158.968025 254.594138,158.89141 L254.542174,158.772511 L252.679937,153.564118 C252.631296,153.428078 252.552314,153.305452 252.449536,153.205261 L252.368094,153.134466 L246.767139,148.800902 C246.490604,148.586941 246.122021,148.544956 245.808124,148.682856 L245.693263,148.743017 L244.662089,149.376381 C244.588251,149.421733 244.520995,149.477017 244.462209,149.540681 C244.135074,149.894958 244.130221,150.432113 244.43328,150.791397 L244.515451,150.877304 L251.767743,157.573963 C251.918683,157.71334 252.019306,157.897237 252.056215,158.097136 L252.070608,158.218768 L252.133111,159.39651 L252.133687,159.408894 C252.153044,159.893591 251.804138,160.307642 251.336268,160.381009 L251.2263,160.391769 L247.817257,160.527911 C247.557898,160.538269 247.307728,160.441649 247.123405,160.264131 L247.036994,160.168752 L240.010764,151.265419 C239.804052,151.003481 239.47704,150.872235 239.151767,150.912679 L239.03011,150.935974 L231.538498,152.884832 C231.295481,152.94805 231.089327,153.104728 230.962977,153.317884 L230.90665,153.428998 L227.805136,160.697022 C227.726901,160.880358 227.593204,161.033319 227.424289,161.135369 L227.318876,161.190325 L221.959682,163.568944 C221.818904,163.631427 221.665554,163.658352 221.513012,163.648178 L221.398967,163.633567 L216.179662,162.639377 C215.770713,162.561479 215.465421,162.227237 215.417379,161.822262 L215.41077,161.710199 L215.41077,155.308032 C215.41077,154.853901 215.732116,154.46976 216.167171,154.381247 L216.278184,154.365408 L222.430279,153.853261 C222.686884,153.831899 222.921714,153.707147 223.082837,153.510897 L223.157016,153.406961 L225.976795,148.832316 C226.106819,148.621374 226.148038,148.369392 226.094915,148.130619 L226.060466,148.012585 L224.031617,142.43632 C223.918008,142.124067 223.977335,141.778375 224.180924,141.523185 L224.263976,141.431973 L234.73649,131.33503 C234.801068,131.272768 234.856295,131.201798 234.90067,131.124356 L234.958906,131.003619 L237.34236,125.010116 C237.445603,124.750498 237.657359,124.551791 237.918313,124.463586 L238.03299,124.432694 L239.426655,124.149578 C239.449198,124.144999 239.4719,124.141243 239.494717,124.138319 C239.975865,124.076654 240.418838,124.388017 240.532836,124.84768 L240.553171,124.956286 L241.286446,130.677726 C241.28952,130.701712 241.293513,130.725571 241.298415,130.749251 C241.396761,131.224261 241.835383,131.541726 242.307116,131.499856 L242.416425,131.483724 L254.753209,128.929516 C254.92488,128.893974 255.082418,128.811627 255.208984,128.69276 L255.297838,128.596923 L261.959791,120.333021 C262.221067,120.008918 262.237167,119.556983 262.012446,119.217634 L261.937809,119.119447 L258.51054,115.169794 C258.431556,115.078771 258.37094,114.973784 258.331583,114.860648 L258.29942,114.745012 L257.101589,109.063914 C257.047859,108.809082 257.101862,108.545424 257.247101,108.333718 L257.327247,108.232476 L262.768659,102.247308 L262.802557,102.207899 C263.10685,101.833819 263.078035,101.297417 262.753059,100.957828 L262.665666,100.877239 L260.728606,99.3015506 C260.37668,99.0152784 259.877006,99.0220407 259.534137,99.3020122 L259.444744,99.3851269 L251.005836,108.301384 C250.860018,108.45545 250.771077,108.653075 250.751189,108.861872 L250.747639,108.988232 L251.142866,119.181042 C251.154146,119.471947 251.030966,119.74932 250.813288,119.93586 L250.714328,120.01002 L247.148512,122.335106 C247.076466,122.382084 246.998349,122.419016 246.91632,122.444881 C246.45369,122.590754 245.96259,122.362733 245.769014,121.930513 L245.729773,121.827223 L243.959529,116.21298 C243.930666,116.121445 243.888041,116.034836 243.833116,115.956128 C243.557162,115.56068 243.033523,115.440844 242.617647,115.65988 L242.516129,115.721735 L238.083675,118.814821 C237.956337,118.90368 237.809083,118.959824 237.654909,118.978298 C237.173271,119.036008 236.73287,118.721016 236.622652,118.260432 L236.60321,118.151663 L235.704749,110.65332 C235.680727,110.452832 235.721584,110.251034 235.819611,110.076864 L235.885226,109.97591 L255.644966,83.4365053 C255.722971,83.3317363 255.821534,83.2446448 255.934121,83.1802648 L256.051139,83.1236417 L266.633207,78.8736966 C266.93088,78.754146 267.265963,78.7944147 267.525132,78.9744078 L267.618541,79.0484155 L281.797099,91.8110656 C282.088579,92.0734374 282.184798,92.4844691 282.050855,92.8439192 L281.997634,92.9615508 L280.202938,96.3039822 C280.047008,96.5943851 279.753026,96.779988 279.429747,96.8005137 L279.307357,96.8003551 L274.094878,96.456683 C273.878511,96.4424174 273.663812,96.502924 273.486735,96.6280702 C273.09294,96.9063777 272.976228,97.4307215 273.19774,97.8452844 L273.2602,97.9464321 L276.920259,103.125286 C277.178979,103.491365 277.654391,103.621342 278.057955,103.451978 L278.16602,103.398319 L285.813184,98.97862 C286.029201,98.8537721 286.185636,98.6496325 286.251397,98.412327 L286.276578,98.2911239 L287.391375,90.3471602 C287.435924,90.0297051 287.637487,89.7593216 287.922372,89.6241301 L288.032965,89.5799426 L307.121822,83.3112988 C307.262314,83.2651623 307.411158,83.2527653 307.556415,83.2744214 L307.6645,83.2970533 L316.436843,85.6759141 C316.635928,85.7299014 316.847204,85.7173294 317.038482,85.6401134 C317.488297,85.4585299 317.72234,84.9702706 317.59691,84.5135951 L317.561518,84.408923 L316.387275,81.5001143 C316.310174,81.309119 316.297924,81.0992967 316.350419,80.90239 L316.389684,80.7860498 L320.228451,71.4585361 C320.244726,71.4189893 320.263665,71.3805918 320.285137,71.3436079 C320.527249,70.9265812 321.039108,70.7636137 321.47176,70.9473064 L321.57807,71.0005053 L329.728187,75.7322053 C329.734471,75.7358536 329.740796,75.7394292 329.747163,75.7429317 C330.169657,75.9753703 330.692245,75.8510306 330.968197,75.4705304 L331.031846,75.3701269 L334.713397,68.6783084 C334.746795,68.6176028 334.78671,68.5608434 334.832371,68.5090088 L334.905076,68.4350729 L349.139523,55.4651096 C349.234123,55.3789136 349.344889,55.3131145 349.464899,55.271229 L349.587733,55.2374449 L359.929603,53.1301587 C360.014068,53.112948 360.095582,53.0843143 360.171948,53.0452004 L360.282363,52.9787874 L366.381794,48.7187261 C366.691519,48.5024036 367.096208,48.4930821 367.41285,48.684733 Z M292.888542,235.578539 L292.970394,235.666155 L294.660766,237.720047 C294.833275,237.929655 294.906246,238.201626 294.865109,238.466308 L294.84045,238.579093 L291.649624,249.835353 C291.578061,250.087805 291.405458,250.297479 291.175459,250.416872 L291.073502,250.462374 L285.673387,252.499835 C285.620891,252.519642 285.566737,252.534738 285.511565,252.544946 C285.034577,252.633197 284.575019,252.346876 284.435708,251.894242 L284.409382,251.78693 L283.697039,247.936779 C283.669845,247.789793 283.677964,247.638998 283.720028,247.496647 L283.75792,247.391657 L285.136092,244.180361 C285.183108,244.070808 285.208849,243.953692 285.212346,243.835232 L285.208392,243.716554 L284.910263,240.624188 C284.880544,240.315929 285.003593,240.01533 285.234792,239.816443 L285.326474,239.746812 L291.714743,235.480628 C292.085145,235.233267 292.572119,235.280045 292.888542,235.578539 Z M405.250472,216.562807 L405.364467,216.571144 L408.160095,216.94636 C408.41263,216.980254 408.638914,217.114215 408.790039,217.315041 L408.859111,217.420872 L409.820598,219.133895 C410.017641,219.484954 410.412129,219.669016 410.800909,219.604 L410.917169,219.576941 L416.650718,217.857331 C416.862852,217.793708 417.089135,217.806899 417.290635,217.892054 L417.408249,217.951743 L426.432034,223.353095 C426.587575,223.446197 426.712244,223.581494 426.792422,223.742003 L426.844001,223.866847 L428.663108,229.34992 C428.711032,229.494371 428.723392,229.648253 428.699139,229.798501 C428.621839,230.277386 428.197646,230.613887 427.724525,230.592863 L427.61461,230.581567 L419.724015,229.307887 L419.673112,229.298233 L419.622813,229.285807 L414.530672,227.878705 C414.157939,227.775709 413.889389,227.45804 413.843642,227.081546 L413.83672,226.966988 L413.83672,224.262413 C413.83672,223.888805 413.617483,223.554491 413.284428,223.402262 L413.169338,223.358458 L407.001917,221.458315 C406.877912,221.42011 406.763548,221.356946 406.665627,221.273199 L406.573439,221.182752 L404.137398,218.442056 C404.13308,218.437198 404.128814,218.432295 404.1246,218.427347 C403.81951,218.069142 403.835788,217.545243 404.145314,217.206805 L404.228789,217.126262 L404.625324,216.788526 C404.771303,216.664194 404.950107,216.58835 405.137326,216.568174 L405.250472,216.562807 Z M360.071105,201.868636 L360.133448,201.960929 L365.984392,212.017919 L366.002191,212.049923 L366.018738,212.082592 L370.466246,221.301926 C370.551995,221.479676 370.69071,221.625233 370.861899,221.719502 L370.968345,221.769757 L383.877888,226.908741 C384.065992,226.983621 384.225106,227.11688 384.331835,227.288924 C384.586038,227.698692 384.489182,228.227064 384.123624,228.522527 L384.026685,228.591336 L382.665581,229.435707 C382.491987,229.543397 382.289203,229.591419 382.087762,229.574492 L381.967303,229.5565 L367.338131,226.397572 C367.138682,226.354504 366.959627,226.248383 366.826519,226.096548 L366.752373,226.0001 L356.707269,211.032492 C356.540899,210.784595 356.502632,210.475108 356.598323,210.197383 L356.647552,210.080574 L356.989225,209.400854 C356.997581,209.384231 357.006426,209.367858 357.015747,209.351756 C357.257348,208.934433 357.769007,208.770838 358.201883,208.954001 L358.308259,209.007069 L359.643072,209.779833 C359.871821,209.912263 360.150253,209.926781 360.391534,209.818859 C360.771918,209.648719 360.959849,209.225444 360.845565,208.836452 L360.806821,208.731429 L358.330134,203.194279 C358.192228,202.885962 358.230217,202.530895 358.422257,202.260524 L358.50145,202.163361 L358.82635,201.814563 C358.88114,201.755743 358.944292,201.70531 359.013773,201.664887 C359.372134,201.4564 359.823225,201.550399 360.071105,201.868636 Z M383.23475,208.241745 L383.358282,208.265711 L386.108968,208.992044 C386.486388,209.091704 386.759735,209.411112 386.806316,209.790971 L386.813364,209.906583 L386.813364,216.290382 C386.813364,216.436594 386.779477,216.580302 386.71498,216.710431 L386.66092,216.805309 L383.715182,221.34434 C383.527545,221.633466 383.199945,221.794766 382.862445,221.773469 L382.735673,221.756816 L376.305457,220.466698 C376.073823,220.420225 375.86944,220.289132 375.730715,220.101324 L375.667001,220.002823 L372.954067,215.177056 C372.721556,214.763466 372.833205,214.248354 373.199563,213.965464 L373.296407,213.899773 L382.634609,208.366495 C382.816266,208.258856 383.027583,208.215703 383.23475,208.241745 Z M13.7554728,84.2619455 L13.8748386,84.2999264 L40.2313658,94.6500016 C40.4767427,94.7463599 40.7491444,94.7353049 40.9836961,94.6236208 L41.0975175,94.5594245 L51.2867407,87.8460695 C51.4299233,87.7517311 51.5953418,87.698533 51.7650691,87.6909748 L51.8928924,87.6939339 L62.3332123,88.644226 C62.568989,88.6656867 62.7866287,88.774564 62.9447255,88.9470412 L63.0186203,89.0384696 L68.9927105,97.4491291 C69.12701,97.6382035 69.3252015,97.7702227 69.5484847,97.8224256 L69.6620377,97.8417703 L93.0428861,100.373366 C93.3243489,100.403842 93.6023554,100.306585 93.8027609,100.112454 L93.8836818,100.023415 L98.2635061,94.5417549 C98.4904631,94.2577021 98.532268,93.8725811 98.3812326,93.5502652 L98.3155399,93.4326609 L95.396059,88.9801389 C95.2957902,88.8272183 95.2425348,88.6493888 95.241205,88.4684357 L95.2500205,88.3324756 L95.6423428,85.4828179 C95.6586934,85.3640545 95.6974716,85.2494818 95.7566125,85.1452012 C95.9944976,84.7257487 96.5046833,84.557616 96.939169,84.7369264 L97.046012,84.789048 L112.171154,93.3670066 C112.430341,93.5139998 112.602886,93.7729712 112.641972,94.0635489 L112.650416,94.1897829 L112.650416,101.396032 C112.650416,101.63054 112.563382,101.855201 112.408567,102.02773 L112.325599,102.109455 L106.761607,106.953175 L106.684649,107.028274 L106.616711,107.111623 L96.3770573,121.244201 C96.0979501,121.629419 96.1509064,122.155443 96.4843298,122.478144 L96.5734989,122.554384 L110.312028,132.914966 C110.439686,133.011236 110.540325,133.137876 110.605323,133.282561 L110.647254,133.394265 L112.027961,137.921793 C112.10679,138.180287 112.291702,138.390861 112.533481,138.503398 L112.640439,138.54548 L115.670229,139.529831 C116.122122,139.676647 116.605811,139.465029 116.81062,139.049239 L116.855832,138.941128 L118.485117,134.259498 C118.508309,134.192857 118.523935,134.123936 118.531775,134.054033 L118.537669,133.948603 L118.537669,128.16416 C118.537669,128.102979 118.531733,128.042015 118.519986,127.982119 L118.498023,127.89318 L115.999586,119.53765 C115.967967,119.431905 115.955179,119.32172 115.961516,119.212091 L115.974237,119.102832 L116.329518,117.0827 C116.345846,116.989861 116.37596,116.899984 116.418861,116.816049 C116.638325,116.386671 117.140736,116.196563 117.582592,116.356856 L117.691595,116.404293 L128.566029,121.962448 L128.629525,121.998048 L128.690095,122.038426 L132.473655,124.776627 C132.839841,125.04164 133.336337,125.008021 133.663082,124.71164 L133.74776,124.624321 L136.564607,121.323036 C136.718645,121.142506 136.933852,121.027593 137.166551,120.998445 L137.284156,120.991111 L139.896045,120.991111 C140.217911,120.991111 140.51467,121.154445 140.687817,121.419468 L140.74676,121.523498 L148.253033,136.966608 L148.274377,137.013759 L148.29311,137.062007 L149.135939,139.422224 L149.147304,139.456051 C149.293089,139.918709 149.064975,140.409766 148.632719,140.603259 L148.529421,140.642481 L134.331191,145.116408 C134.130611,145.179611 133.956815,145.307857 133.837269,145.480876 C133.563154,145.877601 133.633819,146.410109 133.98435,146.723251 L134.077776,146.79676 L141.027578,151.598672 C141.193126,151.713056 141.316997,151.876592 141.382749,152.064609 L141.415094,152.180159 L141.777671,153.885512 C141.785271,153.921254 141.790792,153.957407 141.794208,153.993788 C141.83956,154.476747 141.513388,154.908933 141.050131,155.007314 L140.940899,155.023963 L131.599912,155.901113 C131.283567,155.930818 131.006126,156.116785 130.857025,156.391585 L130.807304,156.498667 L129.297692,160.362933 C129.195172,160.625361 128.982002,160.826384 128.718837,160.915075 L128.603168,160.946059 L123.831202,161.905876 C123.449993,161.982551 123.158687,162.283117 123.088189,162.657824 L123.073795,162.772311 L122.51234,171.477734 C122.496027,171.730673 122.379126,171.964597 122.190821,172.129124 L122.090853,172.205371 L113.407755,177.95842 C113.017185,178.217195 112.879408,178.717941 113.06742,179.13486 L113.121253,179.237155 L117.343977,186.205313 C117.488446,186.44371 117.519418,186.731729 117.433056,186.992656 L117.388849,187.102599 L116.588318,188.781693 C116.526213,188.911956 116.435127,189.026281 116.322031,189.115918 C115.94412,189.415439 115.408126,189.37982 115.072689,189.05056 L114.993215,188.962152 L109.920434,182.561737 C109.839642,182.4598 109.738998,182.375994 109.625096,182.315101 L109.507021,182.262022 L100.656215,178.991226 C100.371653,178.886067 100.056704,178.924505 99.8076618,179.088762 L99.7052451,179.16681 L93.0926857,184.956454 C92.9013577,185.123972 92.7869008,185.360116 92.7716398,185.610509 L92.772379,185.736641 L93.4636517,195.25272 C93.4711671,195.356177 93.495649,195.457694 93.5361169,195.553204 C93.7242415,195.997207 94.2117349,196.222836 94.6639429,196.094625 L94.7760661,196.055122 L102.122143,192.942582 C102.276614,192.877133 102.444981,192.854234 102.609957,192.87512 L102.732782,192.899013 L104.820186,193.450531 C104.833526,193.454056 104.846788,193.457872 104.859962,193.461977 C105.323082,193.606289 105.596147,194.073845 105.508361,194.539225 L105.48162,194.646434 L104.181977,198.817202 C104.171012,198.852389 104.162114,198.888186 104.155327,198.924411 C104.065995,199.401198 104.351274,199.861404 104.803592,200.00174 L104.910843,200.028309 L110.167077,201.013122 C110.51358,201.078043 110.791806,201.329132 110.895398,201.659585 L110.923315,201.772529 L112.112238,208.26818 C112.143049,208.436512 112.127486,208.609222 112.068385,208.768155 L112.015941,208.884488 L111.254405,210.308724 C111.022979,210.736577 110.516113,210.91519 110.078108,210.744649 L109.97024,210.694681 L87.5218358,198.551705 C87.468338,198.522767 87.4178189,198.48877 87.3709557,198.450219 L87.3034875,198.38904 L63.3334424,174.451876 C63.2563477,174.374887 63.1933299,174.285356 63.1469332,174.18737 L63.1061711,174.086718 L58.7532291,161.267962 C58.7050747,161.126154 58.6914491,160.975467 58.7127571,160.82829 L58.7352944,160.718759 L61.0102082,152.237838 C61.0722222,152.006649 61.0439555,151.762099 60.9339335,151.55276 L60.872149,151.45125 L44.6769156,128.257858 C44.5923367,128.136732 44.4808729,128.037531 44.3518541,127.967654 L44.2519443,127.920861 L25.0088719,120.242304 C24.7787537,120.15048 24.5234742,120.153165 24.2974048,120.246497 L24.187056,120.300699 L15.9533139,125.031918 C15.7096841,125.171911 15.4184656,125.195381 15.1582289,125.100527 L15.0488248,125.052626 L2.24385001,118.455028 C2.11252263,118.387363 1.99887057,118.289877 1.9120009,118.170382 C1.62845311,117.780343 1.6863292,117.246294 2.02925183,116.924838 L2.12088833,116.849109 L7.6743627,112.811882 C7.88858895,112.656146 8.02627724,112.41893 8.05735203,112.159281 L8.06405476,112.046802 L8.06405476,110.299518 C8.06405476,109.814434 7.69890521,109.414636 7.2284801,109.359997 L7.11816995,109.353633 L1.65749335,109.353633 C1.24296535,109.353633 0.881588305,109.084673 0.75720124,108.69804 L0.729291401,108.58979 L0.0176828597,104.961412 C0.00230109675,104.882983 -0.00307840667,104.80292 0.00167294076,104.723138 C0.0305106052,104.238912 0.418781889,103.861529 0.891623211,103.834953 L1.00211657,103.835158 L6.10918588,104.139305 C6.32233834,104.151999 6.53351497,104.092199 6.70836391,103.96963 C7.10322383,103.692836 7.22194607,103.168943 7.00202583,102.753534 L6.93995454,102.652147 L1.3908489,94.7361022 C1.12740175,94.3602832 1.17424711,93.8559493 1.48604057,93.5348569 L1.57761005,93.4520637 L12.9413215,84.4392664 C13.1724198,84.2559776 13.4735895,84.1924246 13.7554728,84.2619455 Z M398.811669,203.596256 L399.705592,206.937323 C399.833781,207.416436 399.570136,207.913202 399.1015,208.075565 L397.450095,208.647709 C397.238846,208.720898 397.0085,208.716895 396.799921,208.636409 L391.972333,206.77356 C391.484962,206.585495 391.242326,206.037945 391.430391,205.550574 C391.49351,205.386999 391.600851,205.244187 391.740431,205.138082 L393.845477,203.537872 C393.977083,203.437829 394.132611,203.374024 394.296559,203.352816 L397.776583,202.902664 C398.246659,202.841858 398.689159,203.138369 398.811669,203.596256 Z M117.330246,198.066441 L117.439662,198.112919 L122.107737,200.447389 C122.392551,200.589823 122.584113,200.864419 122.623166,201.175292 L122.630546,201.293383 L122.630546,203.043488 C122.630546,203.528572 122.265397,203.92837 121.794972,203.98301 L121.684661,203.989373 L117.016587,203.989373 C116.531503,203.989373 116.131705,203.624224 116.077066,203.153799 L116.070702,203.043488 L116.070702,198.958912 C116.070702,198.812045 116.104902,198.667195 116.170593,198.535837 C116.386277,198.104548 116.887,197.910035 117.330246,198.066441 Z M391.796063,182.115141 L391.915803,182.153955 L392.053741,182.20902 C392.431772,182.359932 392.651477,182.748251 392.59679,183.142254 L392.574985,183.249676 L391.507462,187.22622 C391.413576,187.57595 391.118884,187.829737 390.767573,187.876997 L390.648571,187.884949 L390.590084,187.884949 C390.253812,187.884949 389.946288,187.706849 389.777385,187.42308 L389.720759,187.311855 L388.852141,185.28629 C388.717829,184.973084 388.76338,184.615348 388.963638,184.347414 L389.045937,184.251411 L390.889584,182.370339 C391.127013,182.128091 391.473163,182.033749 391.796063,182.115141 Z M414.59513,160.660316 L414.71553,160.703145 L416.393233,161.430576 C416.82325,161.617027 417.04657,162.086175 416.934216,162.529685 L416.89906,162.63985 L414.250051,169.483279 C414.186221,169.648178 414.077805,169.791029 413.938089,169.896572 L413.827641,169.968495 L407.775437,173.334012 C407.669987,173.392651 407.554627,173.430391 407.435668,173.445597 L407.315743,173.45323 L405.500193,173.45323 C405.115192,173.45323 404.772846,173.685874 404.627403,174.034406 L404.589831,174.142325 L403.440609,178.216518 C403.41677,178.301031 403.381338,178.381604 403.335489,178.456 L403.259047,178.56268 L401.751823,180.384493 C401.597799,180.570665 401.37948,180.689637 401.142725,180.719829 L401.023023,180.727427 L399.089889,180.727427 C398.604805,180.727427 398.205007,180.362278 398.150368,179.891853 L398.144004,179.781542 L398.144004,178.771061 C398.144004,178.576674 398.203861,178.387999 398.313992,178.230056 L398.386027,178.139178 L401.347988,174.839815 C401.4009,174.780875 401.446094,174.715642 401.482608,174.645706 L401.53075,174.537471 L402.369851,172.27988 C402.401576,172.194522 402.445376,172.11442 402.499726,172.041942 L402.588974,171.939239 L413.671754,160.900786 C413.915828,160.657687 414.269768,160.568792 414.59513,160.660316 Z M420.039975,156.164856 C420.319381,155.872519 420.753723,155.790137 421.120767,155.959861 L421.120767,155.959861 L423.075704,156.863841 C423.488312,157.054634 423.706845,157.511957 423.596087,157.952843 L423.596087,157.952843 L423.149042,159.732359 C423.043389,160.152923 422.665294,160.447782 422.231662,160.447782 L422.231662,160.447782 L419.00021,160.447782 C418.755546,160.447782 418.520399,160.352979 418.344151,160.183282 L418.344151,160.183282 L417.906069,159.761483 C417.530729,159.400094 417.518328,158.803219 417.878332,158.426552 L417.878332,158.426552 Z M220.431551,114.398575 L220.523399,114.467731 L221.525841,115.324858 C221.70599,115.478893 221.82063,115.693888 221.849708,115.926311 L221.857024,116.043774 L221.857024,119.7734 C221.857024,119.886597 221.87734,119.998561 221.916699,120.104051 L221.962358,120.207189 L224.385684,124.902852 L224.422522,124.983247 L224.451691,125.066731 L226.356028,131.462886 C226.373415,131.521285 226.385098,131.581158 226.390955,131.641665 L226.395355,131.732797 L226.395355,134.203658 C226.395355,134.632386 226.10813,135.002112 225.704069,135.114698 L225.591102,135.138879 L220.805941,135.863554 C220.359395,135.93118 219.933273,135.674154 219.778586,135.260487 L219.745714,135.153904 L219.296058,133.322768 C219.238366,133.087829 219.273185,132.841327 219.390432,132.633115 L219.455879,132.532431 L221.399324,129.921373 C221.639464,129.59874 221.646901,129.164466 221.430618,128.836407 L221.35025,128.731287 L218.318271,125.290181 C218.173795,125.126211 218.091452,124.918389 218.082835,124.702631 L218.086604,124.572511 L219.01846,115.07371 C219.036751,114.887257 219.111849,114.710915 219.233601,114.568522 C219.53668,114.21406 220.052032,114.148343 220.431551,114.398575 Z M216.403092,124.309814 L216.580072,124.399742 C216.778585,124.500612 216.935148,124.668281 217.022197,124.873231 L217.971188,127.107551 C218.020862,127.224504 218.046462,127.350265 218.046462,127.477329 L218.046462,129.848223 C218.046462,130.21996 217.828721,130.557231 217.489939,130.710252 L214.115829,132.234271 C213.863157,132.348398 213.573136,132.345923 213.322449,132.2275 L213.198446,132.168922 C212.952717,132.052842 212.847616,131.759538 212.963697,131.513809 C212.974465,131.491014 212.986969,131.469079 213.001099,131.4482 L214.243319,129.6126 C214.522858,129.199531 214.433623,128.640384 214.039399,128.334843 L214.018918,128.31897 C213.618855,128.008903 213.533779,127.438846 213.825877,127.025481 L215.605244,124.507389 C215.785278,124.252612 216.12497,124.168492 216.403092,124.309814 Z M193.779634,-2.84217094e-14 C193.98593,-3.25449041e-14 194.185374,0.0673959077 194.348444,0.190133154 L194.441684,0.270320026 L214.569999,19.9959662 C214.835089,20.2557535 214.921197,20.6431672 214.799972,20.9862786 L214.751846,21.0987724 L205.868695,38.6449851 C205.795047,38.7904559 205.760565,38.9518446 205.767602,39.1133902 L205.780702,39.2343325 L208.306903,53.7565774 C208.322147,53.8442089 208.324917,53.9333295 208.315313,54.0213159 L208.291641,54.1521169 L198.149614,93.9770079 C198.104554,94.1539441 198.009531,94.3130736 197.877233,94.4361406 L197.771219,94.5213939 L182.256765,105.257035 C182.11144,105.357597 181.99794,105.496312 181.92798,105.656726 L181.883857,105.780848 L178.858888,116.631616 C178.733497,117.081405 178.301928,117.366641 177.848605,117.318369 L177.734986,117.299255 L173.152614,116.241417 C172.940897,116.192542 172.753819,116.072645 172.621263,115.903727 L172.548511,115.796669 L163.934465,101.041939 C163.845548,100.889637 163.801423,100.716316 163.805729,100.541721 L163.818097,100.410844 L166.279729,85.5125286 C166.300325,85.3878719 166.295673,85.2607859 166.266531,85.138707 L166.229255,85.0185725 L158.649777,65.3256754 C158.575515,65.1327292 158.440559,64.970533 158.266923,64.8624399 L158.158275,64.8042632 L142.248924,57.5761555 C142.112085,57.5139851 141.992537,57.4203414 141.899681,57.3035069 L141.835191,57.2116622 L137.81882,50.7021395 C137.666957,50.4560075 137.637151,50.156134 137.732833,49.8878377 L137.781532,49.7750357 L156.336409,13.4659565 C156.480118,13.1847401 156.753129,12.9961876 157.061552,12.9577589 L157.178687,12.9504974 L170.392498,12.9504974 C170.628562,12.9504974 170.854579,12.8623082 171.027494,12.705675 L171.109327,12.6217462 L181.692628,0.328751231 C181.846646,0.149851813 182.060942,0.036105595 182.292461,0.00725768401 L182.409457,-2.84217094e-14 L193.779634,-2.84217094e-14 Z M122.383732,74.823676 C122.461215,74.823676 122.538404,74.8331964 122.613565,74.8520233 L130.925727,76.9341252 C131.078796,76.9724671 131.21984,77.0484941 131.336013,77.155282 L148.282195,92.7323499 C148.649198,93.0697026 148.691394,93.6339811 148.378645,94.0221646 L146.650043,96.1677016 C146.329364,96.565728 146.382898,97.1465142 146.770933,97.4792144 L153.663602,103.388977 C153.998998,103.676545 154.090655,104.157986 153.884385,104.548676 L149.350624,113.135968 C149.116966,113.578535 148.579006,113.762503 148.123276,113.555687 L137.866985,108.901266 C137.39128,108.685385 137.18065,108.124745 137.396531,107.64904 L137.41056,107.619494 L141.149886,100.083514 C141.348279,99.6836848 141.240173,99.1995812 140.890534,98.9221348 L121.795773,83.7699972 C121.569656,83.590568 121.437847,83.3177088 121.437847,83.0290502 L121.437847,75.7695608 C121.437847,75.247163 121.861334,74.823676 122.383732,74.823676 Z M213.755254,104.380527 C214.13923,104.380527 214.480902,104.611959 214.626982,104.959177 L214.664785,105.0667 L215.462141,107.859102 C215.568848,108.232801 215.435632,108.629337 215.135325,108.863945 L215.040293,108.929285 L209.260366,112.407234 C208.970566,112.581615 208.612964,112.586553 208.321199,112.427976 L208.215135,112.360857 L204.718762,109.809606 C204.509587,109.656974 204.373689,109.426571 204.339129,109.173614 L204.330424,109.045512 L204.330424,105.326412 C204.330424,104.841328 204.695574,104.44153 205.165999,104.386891 L205.276309,104.380527 L213.755254,104.380527 Z M80.2893693,64.1042686 L80.4099345,64.163144 L94.1302767,72.1091422 C94.3858106,72.2571321 94.5554159,72.5144408 94.5938245,72.8025401 L94.6021209,72.9276675 L94.6021209,78.3833159 C94.6021209,78.8683995 94.2369713,79.2681979 93.7665462,79.3228371 L93.6562361,79.3292007 L83.1469472,79.3292007 C82.7949572,79.3292007 82.4756354,79.134235 82.3127259,78.829217 L82.2643855,78.7235848 L80.053057,72.9880219 C79.9264335,72.6595962 79.6296484,72.4317879 79.2864457,72.3895105 L79.1704953,72.382406 L72.6466987,72.382406 C72.3758997,72.382406 72.1180874,72.2663406 71.9385582,72.0636058 C71.6188697,71.7025949 71.6251999,71.1654562 71.9356723,70.8125583 L72.0196141,70.7283807 L79.3088092,64.2735287 C79.5799003,64.0334675 79.9605444,63.9716551 80.2893693,64.1042686 Z M105.074741,63.4245106 L105.18452,63.4503676 L109.642856,64.783199 C109.911448,64.863495 110.128499,65.0579821 110.238953,65.3113115 L110.279604,65.4233225 L111.786757,70.563672 C111.845212,70.7630418 111.836104,70.9749253 111.762847,71.1669449 L111.711223,71.2795139 L108.364267,77.4726811 C108.250744,77.6827423 108.062801,77.8407558 107.839695,77.9174592 L107.725393,77.9488996 L101.978135,79.1485078 C101.528379,79.2423841 101.082496,78.999693 100.91101,78.5848147 L100.874011,78.477603 L99.4726538,73.4724621 C99.419215,73.2815979 99.4273314,73.0797947 99.4941769,72.8952746 L99.5413092,72.7868623 L104.071392,63.9260471 C104.261806,63.5535984 104.671088,63.3544411 105.074741,63.4245106 Z M95.5612645,52.7315507 L95.6735466,52.7940464 L100.41978,55.8747185 C100.805315,56.1249606 100.950833,56.611551 100.780079,57.0269121 L100.730758,57.1290905 L96.8040653,64.1649287 C96.7997967,64.1725771 96.7954222,64.1801658 96.7909428,64.1876927 C96.5443364,64.6020777 96.0307456,64.7595024 95.6001054,64.5711435 L95.494376,64.5167985 L89.5728922,60.9928387 C89.3969134,60.8881112 89.2606557,60.7297368 89.1829851,60.5425788 L89.1435641,60.4270289 L88.2379337,57.0796408 C88.1337183,56.6944403 88.2828682,56.2900742 88.6010123,56.0629957 L88.701441,56.0003873 L94.709014,52.7552249 C94.9753761,52.6113417 95.29188,52.6047552 95.5612645,52.7315507 Z M127.454951,8.38629261 L146.399423,10.4215505 C146.770951,10.4614647 147.084159,10.716358 147.19872,11.0720285 L149.344805,17.7348806 C149.422513,17.9761367 149.400144,18.2384868 149.282715,18.4631051 L127.513504,60.1031617 C127.29344,60.5240999 126.795327,60.7165496 126.34941,60.5529182 L116.618986,56.9822919 C116.249637,56.8467573 116.00275,56.4967457 115.998996,56.1033316 L115.929214,48.7906968 C115.925692,48.4215868 115.707772,48.0882463 115.371078,47.9369463 L110.397619,45.7020273 C110.156391,45.5936269 109.971561,45.3891872 109.887952,45.1382864 L105.460626,31.8523729 C105.38111,31.6137543 105.399905,31.353292 105.512856,31.1285619 L111.939788,18.3414242 C112.015296,18.191191 112.129486,18.0638006 112.270598,17.9723726 L126.839583,8.53293835 C127.021796,8.41487997 127.239077,8.36310065 127.454951,8.38629261 Z" id="Combined-Shape"></path>
                </g>
                <g id="Group-7" transform="translate(99.000000, 114.000000)">
                    <g id="Group-30" filter="url(#filter-1)" transform="translate(0.000000, 6.392757)">
                        <g id="Group-4">
                            <g id="Group">
                                <mask id="mask-3" fill="white">
                                    <use xlink:href="#path-2"></use>
                                </mask>
                                <use id="Mask" fill="#FFFFFF" xlink:href="#path-2"></use>
                                <g id="Group-3" mask="url(#mask-3)">
                                    <g transform="translate(39.635643, 5.607243)">
                                        <g id="Group-Copy" stroke-width="1" fill="none" transform="translate(0.000000, 5.895101)">
                                            <path d="M8.64051677,34.1663747 L8.73285177,59.4457682 C12.1399842,61.6450081 15.5471166,62.7446281 18.954249,62.7446281 C22.3613814,62.7446281 25.8534404,60.7132032 29.4304261,56.6503534 L29.1756462,38.5556969 L8.64051677,34.1663747 Z" id="Path-229" fill="#FFD0AF"></path>
                                            <g id="Path-230">
                                                <use fill="#FFD0AF" xlink:href="#path-4"></use>
                                                <use fill-opacity="0.1" fill="#000000" xlink:href="#path-4"></use>
                                            </g>
                                            <path d="M20.8931175,-5.68434189e-14 C32.0394193,-5.68434189e-14 37.3232779,6.10865207 36.7446932,18.3259562 L36.7232357,18.7354622 L36.7086781,19.0064912 C38.3263821,18.3610139 39.3265314,18.635072 39.709126,19.8286655 C40.5949206,22.5921098 38.8832688,28.8611745 36.7387864,30.9035378 C36.5076959,31.1236239 36.2704758,31.3197128 36.0271263,31.4918045 L35.8815563,34.1496658 C35.4368976,42.9026029 32.3640316,47.2790715 26.6629583,47.2790715 C21.0806574,47.2790715 15.235645,44.1741623 9.12792119,37.964344 L8.7377097,37.5637559 L8.15789645,34.4104431 C6.41852981,34.7364867 4.88282097,34.2651988 3.55076993,32.9965793 C1.40628753,30.9542159 -0.676674381,24.5725331 0.209120267,21.8090888 C0.756320226,20.1019701 2.67304555,20.308059 5.95929624,22.4273553 L5.64356784,20.7073482 C4.53978458,6.90244941 9.62296779,-5.68434189e-14 20.8931175,-5.68434189e-14 Z" id="Combined-Shape" fill="#FFD0AF"></path>
                                        </g>
                                        <path d="M5.49587784,28.2687179 L8.54352461,37.5617678 C8.37446076,27.5671969 8.7012224,22.4158173 9.52380952,22.1076291 C10.7576902,21.6453467 9.67823129,26.5617678 15.420421,26.5617678 C21.1626106,26.5617678 27.64517,19.6810643 31.7460317,20.8943467 C35.8468935,22.1076291 34.2342948,27.456745 36.1904762,26.5617678 C38.1466576,25.6667906 39.001779,18.9682845 38.6699648,15.7176786 C38.3381507,12.4670727 37.6922693,9.04266489 34.2342948,7.39810268 C31.9289784,6.30172788 29.3411265,5.80072737 26.4707389,5.89510115 C24.8338533,0.806121518 21.150414,-0.988040133 15.420421,0.512616199 C6.82543142,2.7636007 0.873081374,12.5454096 0.873081374,18.7808839 C0.873081374,22.9378668 2.41401353,26.1004781 5.49587784,28.2687179 Z" id="Path-231" fill="#01157C"></path>
                                    </g>
                                </g>
                                <path d="M93.6757427,75.1387078 C100.726831,81.3411944 107.016292,97.4047781 112.544126,123.329459 L4,135.392423 C10.8789414,101.057789 16.2928313,81.129396 20.2416697,75.607243 C24.1905081,70.0850899 33.5030075,67.3240134 48.1791677,67.3240134 C51.5744054,71.2734899 55.2162993,73.2482281 59.1048495,73.2482281 C62.9933996,73.2482281 66.3138062,71.2734899 69.0660692,67.3240134 C78.4214295,66.331323 86.624654,68.9362211 93.6757427,75.1387078 Z" id="Path-274" fill="#01157C" mask="url(#mask-3)"></path>
                            </g>
                        </g>
                        <path d="M41,113.534565 C42.6745047,109.770038 44.5565526,106.725765 46.6461439,104.401746 C48.7357351,102.077726 51.7997112,100.732542 55.8380722,100.366192 L74.6131397,110.806812 L109.994993,73.6387082 C110.564467,68.3035721 111.22639,64.1809705 111.980762,61.2709035 C113.112319,56.905803 117.561203,48.5657464 118.308403,47.3035802 C118.806536,46.4621361 120.123381,45.8966903 122.258937,45.607243 L120.851063,60.4449963 C121.789646,64.316756 122.258937,67.102434 122.258937,68.8020303 C122.258937,70.5016266 120.621105,73.1882609 117.345441,76.8619331 C97.7124111,109.322353 84.7044531,126.591512 78.3215668,128.669412 C71.9386805,130.747311 59.4981582,125.702362 41,113.534565 Z" id="Path-33" fill="#FFD0AF"></path>
                    </g>
                    <g id="Group-3" filter="url(#filter-5)" transform="translate(166.715925, 0.466103)">
                        <g id="Group-5" transform="translate(22.255698, 0.000000)">
                            <mask id="mask-7" fill="white">
                                <use xlink:href="#path-6"></use>
                            </mask>
                            <use id="Mask" fill="#FFFFFF" xlink:href="#path-6"></use>
                            <g id="Group-26" mask="url(#mask-7)">
                                <g transform="translate(14.028377, 6.533897)">
                                    <g id="Group-3" stroke-width="1" fill="none" fill-rule="evenodd" transform="translate(47.651467, 32.588888) scale(-1, 1) translate(-47.651467, -32.588888) translate(29.651467, 0.588888)">
                                        <g id="Group-Copy" transform="translate(0.000000, 0.031448)">
                                            <path d="M7.6180338,33.5065988 L7.69944226,50.6453731 C5.14468895,52.2772565 3.28420788,53.7771781 2.11799906,55.1451378 C2.11799906,57.1182118 7.69944226,63.9129868 21.2854959,61.7212259 C34.8715495,59.5294649 32.7648041,55.0660187 32.4342373,53.7363181 C31.0308025,52.8441191 28.7937637,52.1764079 25.723121,51.7331845 L25.723121,37.3790369 L7.6180338,33.5065988 Z" id="Path-229" fill="#D68656"></path>
                                            <g id="Path-230">
                                                <use fill="#D68656" xlink:href="#path-8"></use>
                                                <use fill-opacity="0.1" fill="#000000" xlink:href="#path-8"></use>
                                            </g>
                                            <path d="M18.6398778,7.23609465 C28.4456214,7.23609465 33.0341586,11.3447101 32.4054894,19.5619409 L32.3775601,19.8928214 L32.3649128,20.1318593 C33.7910741,19.5624892 34.6728074,19.8042994 35.0101125,20.8572898 C35.7910858,23.2953125 34.2819838,28.8261358 32.3912706,30.6279916 C32.1873887,30.8222917 31.9780953,30.9953918 31.7633905,31.147292 L31.6354815,33.4918574 C31.2434419,41.2140538 28.5342061,45.075152 23.5077742,45.075152 C18.5955794,45.075152 13.4526565,42.3464617 8.07900555,36.8890811 L7.70372532,36.5039063 L7.19241743,33.7219459 C5.65892439,34.0095553 4.30498076,33.5937592 3.13058652,32.4745577 C1.23987329,30.6727019 -0.596599537,25.0425223 0.18437384,22.6044996 C0.666785801,21.0985183 2.35648587,21.2802041 5.25347406,23.1495569 L4.9757314,21.6324994 C4.14867553,12.0348962 8.70339102,7.23609465 18.6398778,7.23609465 Z" id="Combined-Shape" fill="#D68656"></path>
                                            <path d="M32.462305,19.8321273 L31.8220457,16.5442166 C31.2297586,18.6241364 29.6785772,19.992331 27.1685014,20.6488003 C24.6584255,21.3052697 21.1152961,20.1886615 16.5391131,17.2989756 C14.4933513,17.9169474 13.2279168,18.3017318 12.7428096,18.453329 C10.4474475,19.1706354 9.88648427,21.0423253 9.60663943,24.2193942 C9.32679459,27.396463 9.60663943,32.5955724 12.7428096,35.1815185 C15.8789799,37.7674645 20.7859092,38.0839675 24.9367773,38.0839675 C27.7040227,38.0839675 29.9267371,36.6593598 31.6049206,33.8101445 L32.4011572,38.0839675 C32.4662418,44.1268185 29.6649183,47.2877774 23.9971868,47.5668442 C18.6713558,47.8290765 13.4487721,44.5025909 8.92584513,38.6245173 C8.11804156,37.5746819 7.43273814,35.969891 6.86993488,33.8101445 C6.97018961,29.4855423 6.70060111,26.4956008 6.06116937,24.8403199 C5.42173763,23.1850391 4.10734752,22.1038019 2.11799906,21.5966084 C0.499234779,16.6878158 0.74015871,12.8940532 2.84077085,10.2153206 C5.99168906,6.19722161 9.60663943,8.17844297 12.7428096,6.19722161 C15.8789799,4.21600025 18.886018,-1.31348103 27.9893378,1.26522844 C34.0582177,2.98436809 35.5492068,9.17333436 32.462305,19.8321273 Z" id="Path-46" fill="#01157C"></path>
                                        </g>
                                    </g>
                                    <g id="Group-60" stroke-width="1" fill="none" fill-rule="evenodd" transform="translate(0.232601, 52.996261)">
                                        <g id="Combined-Shape">
                                            <mask id="mask-10" fill="white">
                                                <use xlink:href="#path-9"></use>
                                            </mask>
                                            <use id="Mask" fill="#FFDD25" xlink:href="#path-9"></use>
                                        </g>
                                    </g>
                                    <path d="M77.3524152,96.0986665 L95.08352,88.016653 C96.8987139,109.581699 95.9816366,122.289508 92.3322881,126.140079 C88.6829395,129.990651 70.4595533,134.038939 37.6621293,138.284944 L36.0734726,127.35754 L78.0854839,114.271417 L77.3524152,96.0986665 Z" id="Path-14" fill="#FFE0B5" fill-rule="evenodd"></path>
                                    <path d="M32.7738348,54.1255686 C30.1054188,59.2455734 33.5976574,62.4674712 42.7221277,63.6822649 C51.7238096,64.8807111 58.8122167,62.3449998 63.9209304,56.0815013 C64.0954672,55.8675118 64.0634845,55.552549 63.849495,55.3780122 C63.6355055,55.2034754 63.3205426,55.2354581 63.1460058,55.4494476 C58.2652374,61.4334756 51.523408,63.8452068 42.854099,62.6910114 C34.3075785,61.5531635 31.4192281,58.8884058 33.6606249,54.587741 C33.7882503,54.3428607 33.6931964,54.0408851 33.4483161,53.9132598 C33.2034357,53.7856344 32.9014602,53.8806883 32.7738348,54.1255686 Z" id="Path-22" fill="#DCAE5E" fill-rule="nonzero"></path>
                                    <path d="M77.5534618,94.0817377 L93.6249341,87.023813 C93.8777697,86.9127781 93.9927219,86.6178027 93.881687,86.3649671 C93.7706521,86.1121315 93.4756767,85.9971793 93.2228411,86.1082142 L77.1513687,93.1661389 C76.8985331,93.2771738 76.7835809,93.5721492 76.8946158,93.8249848 C77.0056508,94.0778205 77.3006261,94.1927726 77.5534618,94.0817377 Z" id="Path-23" fill="#DCAE5E" fill-rule="nonzero"></path>
                                    <path d="M3.23945719,85.2318045 L16.245312,92.930272 C16.4829447,93.0709323 16.7896117,92.9923207 16.930272,92.754688 C17.0709323,92.5170553 16.9923207,92.2103883 16.754688,92.069728 L3.74883321,84.3712604 C3.51120053,84.2306001 3.20453347,84.3092118 3.06387317,84.5468445 C2.92321287,84.7844771 3.00182451,85.0911442 3.23945719,85.2318045 Z" id="Path-24" fill="#DCAE5E" fill-rule="nonzero"></path>
                                </g>
                            </g>
                        </g>
                        <path d="M0.436711238,69.2280872 C-0.0244340786,68.0221036 0.559333672,64.0655673 2.18801449,57.3584785 C1.1226711,52.6957234 0.769476009,49.5442143 1.12842921,47.9039512 C1.48738242,46.2636881 2.05514,45.1403367 2.83170197,44.5338969 C5.99763282,50.250734 7.82859888,54.5255945 8.32460017,57.3584785 C8.82060146,60.1913625 8.82060146,63.5176308 8.32460017,67.3372836 L36.2840753,95.1846631 L37.065729,92.9106556 L53.1013348,102.288694 C48.5545436,110.096231 43.9194816,115 39.1961489,117 C34.4728162,119 22.3513339,104.218805 2.83170197,72.6564143 C1.6961868,71.5768466 0.897856555,70.4340709 0.436711238,69.2280872 Z" id="Path-34" fill="#D68656"></path>
                    </g>
                    <g id="Group-53" transform="translate(196.000000, 132.000000)" fill="#010F57" font-family="OpenSans-Regular, Open Sans" font-size="14" font-weight="normal" line-spacing="20">
                        <text id="Top-developer">
                            <tspan x="0" y="15">  Top developer</tspan>
                        </text>
                    </g>
                    <g id="Group-2" transform="translate(128.000000, 25.000000)" fill="#075AFF" fill-rule="nonzero">
                        <path d="M3.02205538,8.06442073 L11.4676211,20.8551184 C11.6958571,21.2007789 12.1610922,21.2959702 12.5067527,21.0677342 C12.8524132,20.8394981 12.9476045,20.374263 12.7193684,20.0286025 L4.27380276,7.23790485 C4.0455667,6.89224436 3.58033163,6.79705304 3.23467113,7.0252891 C2.88901064,7.25352516 2.79381932,7.71876024 3.02205538,8.06442073 Z" id="Path-39"></path>
                        <path d="M4.488097,18.6557754 L8.71473678,22.737527 C9.0126924,23.0252688 9.48749394,23.0169888 9.77523571,22.7190332 C10.0629775,22.4210776 10.0546975,21.9462761 9.75674191,21.6585343 L5.53010213,17.5767827 C5.23214651,17.2890409 4.75734497,17.2973209 4.4696032,17.5952765 C4.18186143,17.8932321 4.19014139,18.3680337 4.488097,18.6557754 Z" id="Path-39-Copy"></path>
                        <path d="M0.478632608,14.9761959 L2.27057238,16.7090527 C2.56833328,16.9969959 3.04314032,16.9890371 3.33108358,16.6912762 C3.61902684,16.3935153 3.61106807,15.9187083 3.31330716,15.630765 L1.52136739,13.8979083 C1.22360649,13.6099651 0.748799454,13.6179238 0.460856195,13.9156847 C0.172912935,14.2134456 0.180871707,14.6882527 0.478632608,14.9761959 Z" id="Path-39-Copy-2"></path>
                        <path d="M16.6177464,3.07222762 L18.0802947,18.1885067 C18.120185,18.600795 18.4867481,18.9026833 18.8990364,18.8627931 C19.3113247,18.8229029 19.613213,18.4563398 19.5733228,18.0440515 L18.1107745,2.92777238 C18.0708843,2.51548408 17.7043211,2.21359578 17.2920328,2.25348599 C16.8797445,2.2933762 16.5778562,2.65993931 16.6177464,3.07222762 Z" id="Path-40"></path>
                        <path d="M31.2357566,5.03938753 L25.9553691,17.8300852 C25.7973086,18.2129556 25.9795531,18.6514668 26.3624235,18.8095273 C26.7452939,18.9675878 27.183805,18.7853433 27.3418655,18.4024729 L32.622253,5.61177526 C32.7803135,5.22890485 32.5980691,4.7903937 32.2151987,4.63233319 C31.8323283,4.47427269 31.3938171,4.65651712 31.2357566,5.03938753 Z" id="Path-41"></path>
                        <path d="M30.483421,19.2728898 L35.6975609,13.5995922 C35.9778527,13.2946178 35.9578435,12.8201658 35.6528692,12.539874 C35.3478948,12.2595822 34.8734428,12.2795913 34.593151,12.5845657 L29.3790112,18.2578633 C29.0987193,18.5628376 29.1187285,19.0372896 29.4237028,19.3175815 C29.7286772,19.5978733 30.2031292,19.5778642 30.483421,19.2728898 Z" id="Path-7"></path>
                        <path d="M22.3948295,18.0157905 L23.3948295,7.05067419 C23.4324489,6.63817249 23.1285468,6.2732772 22.7160451,6.23565774 C22.3035434,6.19803829 21.9386481,6.50194039 21.9010287,6.91444209 L20.9010287,17.8795584 C20.8634092,18.2920601 21.1673113,18.6569554 21.579813,18.6945748 C21.9923147,18.7321943 22.35721,18.4282922 22.3948295,18.0157905 Z" id="Path-47"></path>
                        <path d="M23.7189407,3.92699366 L23.9971488,0.819395883 C24.0340837,0.406832319 23.7295764,0.0424418827 23.3170128,0.0055070635 C22.9044493,-0.0314277557 22.5400588,0.273079507 22.503124,0.685643071 L22.2249158,3.79324085 C22.187981,4.20580441 22.4924883,4.57019485 22.9050518,4.60712967 C23.3176154,4.64406449 23.6820058,4.33955722 23.7189407,3.92699366 Z" id="Path-47-Copy"></path>
                    </g>
                    <path d="M49.8290657,152.00293 L52.4950814,147.005859 L53.7528939,147.005859 L50.4169564,153.124023 L50.4169564,157 L49.2411751,157 L49.2411751,153.178711 L45.9120735,147.005859 L47.1835579,147.005859 L49.8290657,152.00293 Z M60.7255501,153.24707 C60.7255501,154.468431 60.417936,155.422034 59.8026985,156.10791 C59.1874611,156.793786 58.3375347,157.136719 57.2528939,157.136719 C56.5829686,157.136719 55.988248,156.979494 55.4687142,156.665039 C54.9491803,156.350584 54.5481427,155.899417 54.2655892,155.311523 C53.9830357,154.72363 53.841761,154.035486 53.841761,153.24707 C53.841761,152.02571 54.1470965,151.074385 54.7577767,150.393066 C55.3684568,149.711748 56.2161046,149.371094 57.3007454,149.371094 C58.3489277,149.371094 59.1817645,149.719723 59.7992806,150.416992 C60.4167967,151.114261 60.7255501,152.057611 60.7255501,153.24707 Z M55.0175423,153.24707 C55.0175423,154.204106 55.2089466,154.933266 55.591761,155.43457 C55.9745755,155.935875 56.5373954,156.186523 57.2802376,156.186523 C58.0230799,156.186523 58.5870391,155.937014 58.9721321,155.437988 C59.3572252,154.938962 59.5497689,154.208664 59.5497689,153.24707 C59.5497689,152.294592 59.3572252,151.571129 58.9721321,151.07666 C58.5870391,150.582192 58.0185226,150.334961 57.2665657,150.334961 C56.5237235,150.334961 55.9631822,150.578774 55.5849251,151.066406 C55.206668,151.554039 55.0175423,152.28092 55.0175423,153.24707 Z M63.7812142,149.507812 L63.7812142,154.368164 C63.7812142,154.978844 63.9202102,155.434569 64.1982064,155.735352 C64.4762025,156.036134 64.9114195,156.186523 65.5038704,156.186523 C66.2877285,156.186523 66.8608022,155.972333 67.2231087,155.543945 C67.5854152,155.115558 67.7665657,154.41602 67.7665657,153.445312 L67.7665657,149.507812 L68.9013314,149.507812 L68.9013314,157 L67.9648079,157 L67.8007454,155.995117 L67.739222,155.995117 C67.5067989,156.36426 67.1843738,156.646809 66.7719368,156.842773 C66.3594999,157.038738 65.8889642,157.136719 65.3603157,157.136719 C64.4488528,157.136719 63.7664052,156.92025 63.3129525,156.487305 C62.8594997,156.05436 62.6327767,155.361658 62.6327767,154.40918 L62.6327767,149.507812 L63.7812142,149.507812 Z" id="You" fill="#010F57" fill-rule="nonzero"></path>
                </g>
            </g>
        </g>
    </g>
</svg>
